STARTFONT 2.1
FONT --System20-Regular-R-Normal--27-200-97-97-C-160-ATARI-ST
SIZE 20 97 97
FONTBOUNDINGBOX 16 32 0 -5
METRICSSET 2
STARTPROPERTIES 22
FONT_ASCENT 22
FONT_DESCENT 5
PIXEL_SIZE 27
RESOLUTION_X 97
RESOLUTION_Y 97
POINT_SIZE 200
FACE_NAME "16x32 system font"
FOUNDRY ""
FAMILY_NAME "System20"
WEIGHT_NAME "Regular"
RELATIVE_WEIGHT 50
SLANT "R"
SPACING "C"
SETWIDTH_NAME "Normal"
RELATIVE_SETWIDTH 50
ADD_STYLE_NAME ""
AVERAGE_WIDTH 160
UNDERLINE_THICKNESS 2
CHARSET_REGISTRY "ATARI"
CHARSET_ENCODING "ST"
SOURCE_URL "https://github.com/th-otto/gemfedit/tree/master/fonts/tos"
GDOS "font-id=1 left-offset=3 right-offset=13"
ENDPROPERTIES
CHARS 256
STARTCHAR char00
ENCODING 0
SWIDTH 594 0
DWIDTH 16 0
BBX 16 32 0 -5
VVECTOR 8 27
SWIDTH1 0 -1188
DWIDTH1 0 -32
BITMAP 
0000
0000
0000
0000
0000
0000
0000
0000
0000
0000
0000
0000
0000
0000
0000
0000
0000
0000
0000
0000
0000
0000
0000
0000
0000
0000
0000
0000
0000
0000
0000
0000
ENDCHAR
STARTCHAR uni21E7
ENCODING 1
SWIDTH 594 0
DWIDTH 16 0
BBX 16 32 0 -5
VVECTOR 8 27
SWIDTH1 0 -1188
DWIDTH1 0 -32
BITMAP 
0000
0000
0000
0000
0000
0000
0180
03C0
07E0
0E70
1C38
381C
700E
E007
C003
FC3F
FC3F
0C30
0C30
0C30
0C30
0C30
0C30
0C30
0FF0
0FF0
0000
0000
0000
0000
0000
0000
ENDCHAR
STARTCHAR uni21E9
ENCODING 2
SWIDTH 594 0
DWIDTH 16 0
BBX 16 32 0 -5
VVECTOR 8 27
SWIDTH1 0 -1188
DWIDTH1 0 -32
BITMAP 
0000
0000
0000
0000
0000
0000
0FF0
0FF0
0C30
0C30
0C30
0C30
0C30
0C30
0C30
FC3F
FC3F
C003
E007
700E
381C
1C38
0E70
07E0
03C0
0180
0000
0000
0000
0000
0000
0000
ENDCHAR
STARTCHAR uni21E8
ENCODING 3
SWIDTH 594 0
DWIDTH 16 0
BBX 16 32 0 -5
VVECTOR 8 27
SWIDTH1 0 -1188
DWIDTH1 0 -32
BITMAP 
0000
0000
0000
0000
0E00
0F00
0F80
0DC0
0CE0
0C70
FC38
FC1C
C00E
C007
C007
C00E
FC1C
FC38
0C70
0CE0
0DC0
0F80
0F00
0E00
0000
0000
0000
0000
0000
0000
0000
0000
ENDCHAR
STARTCHAR uni21E6
ENCODING 4
SWIDTH 594 0
DWIDTH 16 0
BBX 16 32 0 -5
VVECTOR 8 27
SWIDTH1 0 -1188
DWIDTH1 0 -32
BITMAP 
0000
0000
0000
0000
0070
00F0
01F0
03B0
0730
0E30
1C3F
383F
7003
E003
E003
7003
383F
1C3F
0E30
0730
03B0
01F0
00F0
0070
0000
0000
0000
0000
0000
0000
0000
0000
ENDCHAR
STARTCHAR u01FBBD
ENCODING 5
SWIDTH 594 0
DWIDTH 16 0
BBX 16 32 0 -5
VVECTOR 8 27
SWIDTH1 0 -1188
DWIDTH1 0 -32
BITMAP 
0000
0000
0000
0000
3FF0
3FF0
9FE4
9FE4
CFCC
CFCC
E79C
E79C
F33C
F33C
F87C
F87C
F33C
F33C
E79C
E79C
CFCC
CFCC
9FE4
9FE4
3FF0
3FF0
0000
0000
0000
0000
0000
0000
ENDCHAR
STARTCHAR u01FBBE
ENCODING 6
SWIDTH 594 0
DWIDTH 16 0
BBX 16 32 0 -5
VVECTOR 8 27
SWIDTH1 0 -1188
DWIDTH1 0 -32
BITMAP 
0000
0000
0000
0000
FFFC
FFFC
FFFC
FFFC
FFFC
FFFC
FFF8
FFF8
FFF0
FFF0
FFE4
FFE4
FFCC
FFCC
FF9C
FF9C
FF3C
FF3C
FE7C
FE7C
FCFC
FCFC
0000
0000
0000
0000
0000
0000
ENDCHAR
STARTCHAR u01FBBF
ENCODING 7
SWIDTH 594 0
DWIDTH 16 0
BBX 16 32 0 -5
VVECTOR 8 27
SWIDTH1 0 -1188
DWIDTH1 0 -32
BITMAP 
0000
0000
0000
0000
FCFC
FCFC
F87C
F87C
F33C
F33C
E79C
E79C
CFCC
CFCC
1FE0
1FE0
CFCC
CFCC
E79C
E79C
F33C
F33C
F87C
F87C
FCFC
FCFC
0000
0000
0000
0000
0000
0000
ENDCHAR
STARTCHAR uni2713
ENCODING 8
SWIDTH 594 0
DWIDTH 16 0
BBX 16 32 0 -5
VVECTOR 8 27
SWIDTH1 0 -1188
DWIDTH1 0 -32
BITMAP 
0000
0000
0000
0000
0001
0001
0003
0003
0007
0007
000F
000F
001E
001E
003C
003C
8078
8078
C0F0
C0F0
E1E0
E1E0
73C0
73C0
3B80
3F80
1F00
1F00
0E00
0E00
0000
0000
ENDCHAR
STARTCHAR u01F552
ENCODING 9
SWIDTH 594 0
DWIDTH 16 0
BBX 16 32 0 -5
VVECTOR 8 27
SWIDTH1 0 -1188
DWIDTH1 0 -32
BITMAP 
0000
0000
0000
0000
0000
0000
07E0
1FF8
3C3C
700E
6106
E107
C103
C103
C103
C183
C1F3
C003
C003
C003
E007
6006
700E
3C3C
1FF8
07E0
0000
0000
0000
0000
0000
0000
ENDCHAR
STARTCHAR u01F514
ENCODING 10
SWIDTH 594 0
DWIDTH 16 0
BBX 16 32 0 -5
VVECTOR 8 27
SWIDTH1 0 -1188
DWIDTH1 0 -32
BITMAP 
0000
0000
0000
0000
0000
0000
03C0
07E0
0FF0
0FF0
0FF0
0FF0
0FF0
0FF0
0FF0
0FF0
0FF0
0FF0
1FF8
7FFE
FFFF
FFFF
0200
0700
0F80
0F80
0700
0000
0000
0000
0000
0000
ENDCHAR
STARTCHAR musicalnote
ENCODING 11
SWIDTH 594 0
DWIDTH 16 0
BBX 16 32 0 -5
VVECTOR 8 27
SWIDTH1 0 -1188
DWIDTH1 0 -32
BITMAP 
0000
0000
0000
0000
00C0
00E0
00F0
00F8
00DC
00CE
00C6
00C2
00C0
00C0
00C0
00C0
3EC0
7FC0
FFC0
FF80
7F80
3E00
0000
0000
0000
0000
0000
0000
0000
0000
0000
0000
ENDCHAR
STARTCHAR uni240C
ENCODING 12
SWIDTH 594 0
DWIDTH 16 0
BBX 16 32 0 -5
VVECTOR 8 27
SWIDTH1 0 -1188
DWIDTH1 0 -32
BITMAP 
0000
0000
0000
0000
3FC0
3FC0
3000
3000
3F00
3F00
3000
3000
3000
3000
0000
0000
03FC
03FC
0300
0300
03F0
03F0
0300
0300
0300
0300
0000
0000
0000
0000
0000
0000
ENDCHAR
STARTCHAR uni240D
ENCODING 13
SWIDTH 594 0
DWIDTH 16 0
BBX 16 32 0 -5
VVECTOR 8 27
SWIDTH1 0 -1188
DWIDTH1 0 -32
BITMAP 
0000
0000
0000
0000
0FC0
1FC0
3800
3000
3000
3000
3000
3800
1FC0
0FC0
0000
0000
03F0
03F8
0318
0318
03F8
03F0
0318
0318
030C
030C
0000
0000
0000
0000
0000
0000
ENDCHAR
STARTCHAR uniF82A
ENCODING 14
SWIDTH 594 0
DWIDTH 16 0
BBX 16 32 0 -5
VVECTOR 8 27
SWIDTH1 0 -1188
DWIDTH1 0 -32
BITMAP 
0000
0000
0033
0033
0033
0033
0033
0033
0033
0073
0073
0073
00F3
00F3
01F3
01E3
03E3
07E3
0FC3
1FC3
3F83
3F83
3F03
3F03
3E03
3C03
3803
3003
0000
0000
0000
0000
ENDCHAR
STARTCHAR uniF82B
ENCODING 15
SWIDTH 594 0
DWIDTH 16 0
BBX 16 32 0 -5
VVECTOR 8 27
SWIDTH1 0 -1188
DWIDTH1 0 -32
BITMAP 
0000
0000
CC00
CC00
CC00
CC00
CC00
CC00
CC00
CC00
CE00
CE00
CE00
CF00
CF00
C780
C780
C7C0
C3E0
C3F0
C1F8
C1FC
C0FC
C0FC
C07C
C03C
C01C
C00C
0000
0000
0000
0000
ENDCHAR
STARTCHAR u01FBF0
ENCODING 16
SWIDTH 594 0
DWIDTH 16 0
BBX 16 32 0 -5
VVECTOR 8 27
SWIDTH1 0 -1188
DWIDTH1 0 -32
BITMAP 
0000
0000
0000
0000
1FF8
4FF2
67E6
700E
700E
700E
700E
700E
700E
6006
4002
0000
4002
6006
700E
700E
700E
700E
700E
700E
67E6
4FF2
1FF8
0000
0000
0000
0000
0000
ENDCHAR
STARTCHAR u01FBF1
ENCODING 17
SWIDTH 594 0
DWIDTH 16 0
BBX 16 32 0 -5
VVECTOR 8 27
SWIDTH1 0 -1188
DWIDTH1 0 -32
BITMAP 
0000
0000
0000
0000
0000
0002
0006
000E
000E
000E
000E
000E
000E
0006
0002
0000
0002
0006
000E
000E
000E
000E
000E
000E
0006
0002
0000
0000
0000
0000
0000
0000
ENDCHAR
STARTCHAR u01FBF2
ENCODING 18
SWIDTH 594 0
DWIDTH 16 0
BBX 16 32 0 -5
VVECTOR 8 27
SWIDTH1 0 -1188
DWIDTH1 0 -32
BITMAP 
0000
0000
0000
0000
1FF8
0FF2
07E6
000E
000E
000E
000E
000E
000E
0006
0FF2
1FF8
4FF0
6000
7000
7000
7000
7000
7000
7000
67E0
4FF0
1FF8
0000
0000
0000
0000
0000
ENDCHAR
STARTCHAR u01FBF3
ENCODING 19
SWIDTH 594 0
DWIDTH 16 0
BBX 16 32 0 -5
VVECTOR 8 27
SWIDTH1 0 -1188
DWIDTH1 0 -32
BITMAP 
0000
0000
0000
0000
1FF8
0FF2
07E6
000E
000E
000E
000E
000E
000E
0006
0FF2
1FF8
0FF2
0006
000E
000E
000E
000E
000E
000E
07E6
0FF2
1FF8
0000
0000
0000
0000
0000
ENDCHAR
STARTCHAR u01FBF4
ENCODING 20
SWIDTH 594 0
DWIDTH 16 0
BBX 16 32 0 -5
VVECTOR 8 27
SWIDTH1 0 -1188
DWIDTH1 0 -32
BITMAP 
0000
0000
0000
0000
0000
4002
6006
700E
700E
700E
700E
700E
700E
6006
4FF2
1FF8
0FF2
0006
000E
000E
000E
000E
000E
000E
0006
0002
0000
0000
0000
0000
0000
0000
ENDCHAR
STARTCHAR u01FBF5
ENCODING 21
SWIDTH 594 0
DWIDTH 16 0
BBX 16 32 0 -5
VVECTOR 8 27
SWIDTH1 0 -1188
DWIDTH1 0 -32
BITMAP 
0000
0000
0000
0000
1FF8
4FF0
67E0
7000
7000
7000
7000
7000
7000
6000
4FF0
1FF8
0FF2
0006
000E
000E
000E
000E
000E
000E
07E6
0FF2
1FF8
0000
0000
0000
0000
0000
ENDCHAR
STARTCHAR u01FBF6
ENCODING 22
SWIDTH 594 0
DWIDTH 16 0
BBX 16 32 0 -5
VVECTOR 8 27
SWIDTH1 0 -1188
DWIDTH1 0 -32
BITMAP 
0000
0000
0000
0000
1FF8
4FF0
67E0
7000
7000
7000
7000
7000
7000
6000
4FF0
1FF8
4FF2
6006
700E
700E
700E
700E
700E
700E
67E6
4FF2
1FF8
0000
0000
0000
0000
0000
ENDCHAR
STARTCHAR u01FBF7
ENCODING 23
SWIDTH 594 0
DWIDTH 16 0
BBX 16 32 0 -5
VVECTOR 8 27
SWIDTH1 0 -1188
DWIDTH1 0 -32
BITMAP 
0000
0000
0000
0000
1FF8
4FF2
67E6
700E
700E
700E
700E
700E
700E
6006
4002
0000
0002
0006
000E
000E
000E
000E
000E
000E
0006
0002
0000
0000
0000
0000
0000
0000
ENDCHAR
STARTCHAR u01FBF8
ENCODING 24
SWIDTH 594 0
DWIDTH 16 0
BBX 16 32 0 -5
VVECTOR 8 27
SWIDTH1 0 -1188
DWIDTH1 0 -32
BITMAP 
0000
0000
0000
0000
1FF8
4FF2
67E6
700E
700E
700E
700E
700E
700E
6006
4FF2
1FF8
4FF2
6006
700E
700E
700E
700E
700E
700E
67E6
4FF2
1FF8
0000
0000
0000
0000
0000
ENDCHAR
STARTCHAR u01FBF9
ENCODING 25
SWIDTH 594 0
DWIDTH 16 0
BBX 16 32 0 -5
VVECTOR 8 27
SWIDTH1 0 -1188
DWIDTH1 0 -32
BITMAP 
0000
0000
0000
0000
1FF8
4FF2
67E6
700E
700E
700E
700E
700E
700E
6006
4FF2
1FF8
0FF2
0006
000E
000E
000E
000E
000E
000E
07E6
0FF2
1FF8
0000
0000
0000
0000
0000
ENDCHAR
STARTCHAR uni0259
ENCODING 26
SWIDTH 594 0
DWIDTH 16 0
BBX 16 32 0 -5
VVECTOR 8 27
SWIDTH1 0 -1188
DWIDTH1 0 -32
BITMAP 
0000
0000
0000
0000
0000
0000
0000
0000
0000
0000
3FE0
3FF8
3FF8
003C
001C
001C
001C
3FFC
3FFC
3FFC
381C
381C
381C
3C3C
1FF8
1FF8
07E0
0000
0000
0000
0000
0000
ENDCHAR
STARTCHAR uni241B
ENCODING 27
SWIDTH 594 0
DWIDTH 16 0
BBX 16 32 0 -5
VVECTOR 8 27
SWIDTH1 0 -1188
DWIDTH1 0 -32
BITMAP 
0000
0000
0000
0000
3FC0
3FC0
3000
3000
3F00
3F00
3000
3000
3FC0
3FC0
0000
0000
01FC
03FC
0300
0300
03F8
01FC
000C
000C
03FC
03F8
0000
0000
0000
0000
0000
0000
ENDCHAR
STARTCHAR uniF82C
ENCODING 28
SWIDTH 594 0
DWIDTH 16 0
BBX 16 32 0 -5
VVECTOR 8 27
SWIDTH1 0 -1188
DWIDTH1 0 -32
BITMAP 
0000
0000
0000
0000
0000
0000
0000
0000
0000
0000
0000
0000
0000
0000
0000
0007
001F
003F
007B
007F
00F5
00EA
00D0
00E0
00D0
01A0
01D0
01BE
01FF
0163
0156
0129
ENDCHAR
STARTCHAR uniF82D
ENCODING 29
SWIDTH 594 0
DWIDTH 16 0
BBX 16 32 0 -5
VVECTOR 8 27
SWIDTH1 0 -1188
DWIDTH1 0 -32
BITMAP 
0000
0000
0000
0000
0000
0000
0000
0000
0000
0000
0000
0000
0000
0000
0000
FE00
FD80
F6C0
5BE0
BEE0
F870
E030
0030
0038
0030
0038
0018
0718
0F98
18C8
A568
A208
ENDCHAR
STARTCHAR uniF82E
ENCODING 30
SWIDTH 594 0
DWIDTH 16 0
BBX 16 32 0 -5
VVECTOR 8 27
SWIDTH1 0 -1188
DWIDTH1 0 -32
BITMAP 
00C0
00A0
0081
00C2
00E9
0052
006D
0077
002E
001B
0C35
126A
1ECD
16C6
1783
1700
0E00
0000
0000
0000
0000
0000
0000
0000
0000
0000
0000
0000
0000
0000
0000
0000
ENDCHAR
STARTCHAR uniF82F
ENCODING 31
SWIDTH 594 0
DWIDTH 16 0
BBX 16 32 0 -5
VVECTOR 8 27
SWIDTH1 0 -1188
DWIDTH1 0 -32
BITMAP 
8030
8010
A820
ACA0
1320
E160
4640
FCC0
0880
F180
4100
8300
0600
1C00
F000
0000
0000
0000
0000
0000
0000
0000
0000
0000
0000
0000
0000
0000
0000
0000
0000
0000
ENDCHAR
STARTCHAR space
ENCODING 32
SWIDTH 594 0
DWIDTH 16 0
BBX 16 32 0 -5
VVECTOR 8 27
SWIDTH1 0 -1188
DWIDTH1 0 -32
BITMAP 
0000
0000
0000
0000
0000
0000
0000
0000
0000
0000
0000
0000
0000
0000
0000
0000
0000
0000
0000
0000
0000
0000
0000
0000
0000
0000
0000
0000
0000
0000
0000
0000
ENDCHAR
STARTCHAR exclam
ENCODING 33
SWIDTH 594 0
DWIDTH 16 0
BBX 16 32 0 -5
VVECTOR 8 27
SWIDTH1 0 -1188
DWIDTH1 0 -32
BITMAP 
0000
0000
0000
0000
0000
0380
0380
0380
0380
0380
0380
0380
0380
0380
0380
0380
0380
0380
0380
0380
0380
0380
0000
0000
0380
0380
0380
0000
0000
0000
0000
0000
ENDCHAR
STARTCHAR quotedbl
ENCODING 34
SWIDTH 594 0
DWIDTH 16 0
BBX 16 32 0 -5
VVECTOR 8 27
SWIDTH1 0 -1188
DWIDTH1 0 -32
BITMAP 
0000
0000
0000
0000
1C38
1C38
1C38
1C38
1C38
0000
0000
0000
0000
0000
0000
0000
0000
0000
0000
0000
0000
0000
0000
0000
0000
0000
0000
0000
0000
0000
0000
0000
ENDCHAR
STARTCHAR numbersign
ENCODING 35
SWIDTH 594 0
DWIDTH 16 0
BBX 16 32 0 -5
VVECTOR 8 27
SWIDTH1 0 -1188
DWIDTH1 0 -32
BITMAP 
0000
0000
0000
0000
0000
0000
1C38
1C38
1C38
1C38
7FFE
7FFE
7FFE
1C38
1C38
1C38
1C38
1C38
7FFE
7FFE
7FFE
1C38
1C38
1C38
1C38
0000
0000
0000
0000
0000
0000
0000
ENDCHAR
STARTCHAR dollar
ENCODING 36
SWIDTH 594 0
DWIDTH 16 0
BBX 16 32 0 -5
VVECTOR 8 27
SWIDTH1 0 -1188
DWIDTH1 0 -32
BITMAP 
0000
0000
0000
0380
0380
0380
1FFC
7FFC
7FFC
F380
E380
E380
E380
F380
7FF0
7FFC
1FFC
039E
038E
038E
038E
039E
7FFC
7FFC
7FF0
0380
0380
0380
0000
0000
0000
0000
ENDCHAR
STARTCHAR percent
ENCODING 37
SWIDTH 594 0
DWIDTH 16 0
BBX 16 32 0 -5
VVECTOR 8 27
SWIDTH1 0 -1188
DWIDTH1 0 -32
BITMAP 
0000
0000
0000
0000
0000
3C1C
7E1C
6638
6638
6670
6670
7EE0
3CE0
01C0
01C0
0380
0380
0700
0700
0E78
0EFC
1CCC
1CCC
38CC
38CC
70FC
7078
0000
0000
0000
0000
0000
ENDCHAR
STARTCHAR ampersand
ENCODING 38
SWIDTH 594 0
DWIDTH 16 0
BBX 16 32 0 -5
VVECTOR 8 27
SWIDTH1 0 -1188
DWIDTH1 0 -32
BITMAP 
0000
0000
0000
0000
0F80
1FC0
3CE0
3860
3860
38E0
3CC0
1DC0
1F80
0F00
1F00
3F80
7B80
71C6
F1CE
E0EE
E0FC
E07C
E078
F8F8
7FFC
7FDE
1F8E
0000
0000
0000
0000
0000
ENDCHAR
STARTCHAR quotesingle
ENCODING 39
SWIDTH 594 0
DWIDTH 16 0
BBX 16 32 0 -5
VVECTOR 8 27
SWIDTH1 0 -1188
DWIDTH1 0 -32
BITMAP 
0000
0000
0000
0000
0380
0380
0380
0380
0380
0000
0000
0000
0000
0000
0000
0000
0000
0000
0000
0000
0000
0000
0000
0000
0000
0000
0000
0000
0000
0000
0000
0000
ENDCHAR
STARTCHAR parenleft
ENCODING 40
SWIDTH 594 0
DWIDTH 16 0
BBX 16 32 0 -5
VVECTOR 8 27
SWIDTH1 0 -1188
DWIDTH1 0 -32
BITMAP 
0000
0000
0000
0000
003C
0070
00E0
01E0
01C0
03C0
0380
0380
0380
0380
0380
0380
0380
0380
0380
0380
0380
03C0
01C0
01E0
00E0
0070
003C
0000
0000
0000
0000
0000
ENDCHAR
STARTCHAR parenright
ENCODING 41
SWIDTH 594 0
DWIDTH 16 0
BBX 16 32 0 -5
VVECTOR 8 27
SWIDTH1 0 -1188
DWIDTH1 0 -32
BITMAP 
0000
0000
0000
0000
3C00
0E00
0700
0780
0380
03C0
01C0
01C0
01C0
01C0
01C0
01C0
01C0
01C0
01C0
01C0
01C0
03C0
0380
0780
0700
0E00
3C00
0000
0000
0000
0000
0000
ENDCHAR
STARTCHAR asterisk
ENCODING 42
SWIDTH 594 0
DWIDTH 16 0
BBX 16 32 0 -5
VVECTOR 8 27
SWIDTH1 0 -1188
DWIDTH1 0 -32
BITMAP 
0000
0000
0000
0000
0000
0000
3838
3838
3C78
1C70
1EF0
0EE0
0FE0
0380
FFFE
FFFE
FFFE
0380
0EE0
0EE0
1EF0
1C70
3C78
3838
3838
0000
0000
0000
0000
0000
0000
0000
ENDCHAR
STARTCHAR plus
ENCODING 43
SWIDTH 594 0
DWIDTH 16 0
BBX 16 32 0 -5
VVECTOR 8 27
SWIDTH1 0 -1188
DWIDTH1 0 -32
BITMAP 
0000
0000
0000
0000
0000
0000
0000
0000
0000
0380
0380
0380
0380
0380
3FF8
3FF8
3FF8
0380
0380
0380
0380
0380
0000
0000
0000
0000
0000
0000
0000
0000
0000
0000
ENDCHAR
STARTCHAR comma
ENCODING 44
SWIDTH 594 0
DWIDTH 16 0
BBX 16 32 0 -5
VVECTOR 8 27
SWIDTH1 0 -1188
DWIDTH1 0 -32
BITMAP 
0000
0000
0000
0000
0000
0000
0000
0000
0000
0000
0000
0000
0000
0000
0000
0000
0000
0000
0000
0000
0000
0000
0000
0380
0380
0380
0380
0300
0700
0C00
0000
0000
ENDCHAR
STARTCHAR hyphen
ENCODING 45
SWIDTH 594 0
DWIDTH 16 0
BBX 16 32 0 -5
VVECTOR 8 27
SWIDTH1 0 -1188
DWIDTH1 0 -32
BITMAP 
0000
0000
0000
0000
0000
0000
0000
0000
0000
0000
0000
0000
0000
0000
3FFC
3FFC
3FFC
0000
0000
0000
0000
0000
0000
0000
0000
0000
0000
0000
0000
0000
0000
0000
ENDCHAR
STARTCHAR period
ENCODING 46
SWIDTH 594 0
DWIDTH 16 0
BBX 16 32 0 -5
VVECTOR 8 27
SWIDTH1 0 -1188
DWIDTH1 0 -32
BITMAP 
0000
0000
0000
0000
0000
0000
0000
0000
0000
0000
0000
0000
0000
0000
0000
0000
0000
0000
0000
0000
0000
0000
0000
0380
0380
0380
0380
0000
0000
0000
0000
0000
ENDCHAR
STARTCHAR slash
ENCODING 47
SWIDTH 594 0
DWIDTH 16 0
BBX 16 32 0 -5
VVECTOR 8 27
SWIDTH1 0 -1188
DWIDTH1 0 -32
BITMAP 
0000
0000
0000
0000
0000
001C
001C
0038
0038
0070
0070
00E0
00E0
01C0
01C0
0380
0380
0700
0700
0E00
0E00
1C00
1C00
3800
3800
7000
7000
0000
0000
0000
0000
0000
ENDCHAR
STARTCHAR zero
ENCODING 48
SWIDTH 594 0
DWIDTH 16 0
BBX 16 32 0 -5
VVECTOR 8 27
SWIDTH1 0 -1188
DWIDTH1 0 -32
BITMAP 
0000
0000
0000
0000
0000
07E0
1FF8
1FF8
3C3C
381C
381C
381C
383C
387C
38FC
39DC
3B9C
3F1C
3E1C
3C1C
381C
381C
381C
3C3C
1FF8
1FF8
07E0
0000
0000
0000
0000
0000
ENDCHAR
STARTCHAR one
ENCODING 49
SWIDTH 594 0
DWIDTH 16 0
BBX 16 32 0 -5
VVECTOR 8 27
SWIDTH1 0 -1188
DWIDTH1 0 -32
BITMAP 
0000
0000
0000
0000
0000
0380
0380
0780
0F80
0F80
0F80
0380
0380
0380
0380
0380
0380
0380
0380
0380
0380
0380
0380
0380
3FF8
3FF8
3FF8
0000
0000
0000
0000
0000
ENDCHAR
STARTCHAR two
ENCODING 50
SWIDTH 594 0
DWIDTH 16 0
BBX 16 32 0 -5
VVECTOR 8 27
SWIDTH1 0 -1188
DWIDTH1 0 -32
BITMAP 
0000
0000
0000
0000
0000
07C0
1FF0
1FF0
3C78
3838
3838
0038
0038
0070
0070
00E0
01E0
03C0
0780
0F00
0E00
1E00
1C00
3C00
3FF8
3FF8
3FF8
0000
0000
0000
0000
0000
ENDCHAR
STARTCHAR three
ENCODING 51
SWIDTH 594 0
DWIDTH 16 0
BBX 16 32 0 -5
VVECTOR 8 27
SWIDTH1 0 -1188
DWIDTH1 0 -32
BITMAP 
0000
0000
0000
0000
0000
3FF8
3FF8
3FF8
0078
00F0
01E0
03C0
0780
07C0
01E0
00F0
0070
0078
0038
0038
0038
3838
3838
3C78
1FF0
1FF0
07C0
0000
0000
0000
0000
0000
ENDCHAR
STARTCHAR four
ENCODING 52
SWIDTH 594 0
DWIDTH 16 0
BBX 16 32 0 -5
VVECTOR 8 27
SWIDTH1 0 -1188
DWIDTH1 0 -32
BITMAP 
0000
0000
0000
0000
0000
00F8
00F8
01F8
01F8
03B8
03B8
0738
0738
0E38
0E38
1C38
1C38
3838
3838
3FFE
3FFE
3FFE
0038
0038
0038
0038
0038
0000
0000
0000
0000
0000
ENDCHAR
STARTCHAR five
ENCODING 53
SWIDTH 594 0
DWIDTH 16 0
BBX 16 32 0 -5
VVECTOR 8 27
SWIDTH1 0 -1188
DWIDTH1 0 -32
BITMAP 
0000
0000
0000
0000
0000
3FFC
3FFC
3FFC
3800
3800
3800
3800
3800
3FE0
3FF8
3FF8
003C
001C
001C
001C
001C
001C
381C
3C3C
1FF8
1FF8
07E0
0000
0000
0000
0000
0000
ENDCHAR
STARTCHAR six
ENCODING 54
SWIDTH 594 0
DWIDTH 16 0
BBX 16 32 0 -5
VVECTOR 8 27
SWIDTH1 0 -1188
DWIDTH1 0 -32
BITMAP 
0000
0000
0000
0000
0000
07F8
1FF8
1FF8
3C00
3800
3800
3800
3800
3800
3FE0
3FF8
3FF8
383C
381C
381C
381C
381C
381C
3C3C
1FF8
1FF8
07E0
0000
0000
0000
0000
0000
ENDCHAR
STARTCHAR seven
ENCODING 55
SWIDTH 594 0
DWIDTH 16 0
BBX 16 32 0 -5
VVECTOR 8 27
SWIDTH1 0 -1188
DWIDTH1 0 -32
BITMAP 
0000
0000
0000
0000
0000
3FF8
3FF8
3FF8
0038
0038
0070
0070
00E0
00E0
01C0
01C0
0380
0380
0700
0700
0E00
0E00
0E00
0E00
0E00
0E00
0E00
0000
0000
0000
0000
0000
ENDCHAR
STARTCHAR eight
ENCODING 56
SWIDTH 594 0
DWIDTH 16 0
BBX 16 32 0 -5
VVECTOR 8 27
SWIDTH1 0 -1188
DWIDTH1 0 -32
BITMAP 
0000
0000
0000
0000
0000
07E0
1FF8
1FF8
3C3C
381C
381C
381C
3C3C
1E78
0FF0
07E0
0FF0
1E78
3C3C
381C
381C
381C
381C
3C3C
1FF8
1FF8
07E0
0000
0000
0000
0000
0000
ENDCHAR
STARTCHAR nine
ENCODING 57
SWIDTH 594 0
DWIDTH 16 0
BBX 16 32 0 -5
VVECTOR 8 27
SWIDTH1 0 -1188
DWIDTH1 0 -32
BITMAP 
0000
0000
0000
0000
0000
07E0
1FF8
1FF8
3C3C
381C
381C
381C
381C
381C
3C1C
1FFC
1FFC
07FC
001C
001C
001C
001C
001C
003C
1FF8
1FF8
1FE0
0000
0000
0000
0000
0000
ENDCHAR
STARTCHAR colon
ENCODING 58
SWIDTH 594 0
DWIDTH 16 0
BBX 16 32 0 -5
VVECTOR 8 27
SWIDTH1 0 -1188
DWIDTH1 0 -32
BITMAP 
0000
0000
0000
0000
0000
0000
0000
0000
0000
0000
0380
0380
0380
0380
0380
0380
0000
0000
0000
0380
0380
0380
0380
0380
0380
0000
0000
0000
0000
0000
0000
0000
ENDCHAR
STARTCHAR semicolon
ENCODING 59
SWIDTH 594 0
DWIDTH 16 0
BBX 16 32 0 -5
VVECTOR 8 27
SWIDTH1 0 -1188
DWIDTH1 0 -32
BITMAP 
0000
0000
0000
0000
0000
0000
0000
0000
0000
0000
0380
0380
0380
0380
0380
0380
0000
0000
0000
0380
0380
0380
0380
0380
0380
0300
0700
0C00
0000
0000
0000
0000
ENDCHAR
STARTCHAR less
ENCODING 60
SWIDTH 594 0
DWIDTH 16 0
BBX 16 32 0 -5
VVECTOR 8 27
SWIDTH1 0 -1188
DWIDTH1 0 -32
BITMAP 
0000
0000
0000
0000
0000
0000
0000
003C
0078
00F0
01E0
03C0
0780
0F00
1E00
3C00
3C00
1E00
0F00
0780
03C0
01E0
00F0
0078
003C
0000
0000
0000
0000
0000
0000
0000
ENDCHAR
STARTCHAR equal
ENCODING 61
SWIDTH 594 0
DWIDTH 16 0
BBX 16 32 0 -5
VVECTOR 8 27
SWIDTH1 0 -1188
DWIDTH1 0 -32
BITMAP 
0000
0000
0000
0000
0000
0000
0000
0000
0000
0000
0000
3FF8
3FF8
3FF8
0000
0000
0000
3FF8
3FF8
3FF8
0000
0000
0000
0000
0000
0000
0000
0000
0000
0000
0000
0000
ENDCHAR
STARTCHAR greater
ENCODING 62
SWIDTH 594 0
DWIDTH 16 0
BBX 16 32 0 -5
VVECTOR 8 27
SWIDTH1 0 -1188
DWIDTH1 0 -32
BITMAP 
0000
0000
0000
0000
0000
0000
0000
3C00
1E00
0F00
0780
03C0
01E0
00F0
0078
003C
003C
0078
00F0
01E0
03C0
0780
0F00
1E00
3C00
0000
0000
0000
0000
0000
0000
0000
ENDCHAR
STARTCHAR question
ENCODING 63
SWIDTH 594 0
DWIDTH 16 0
BBX 16 32 0 -5
VVECTOR 8 27
SWIDTH1 0 -1188
DWIDTH1 0 -32
BITMAP 
0000
0000
0000
0000
0000
07C0
1FF0
1FF0
3C78
3838
3838
3838
0038
0078
00F0
01E0
03C0
0380
0380
0380
0380
0380
0000
0000
0380
0380
0380
0000
0000
0000
0000
0000
ENDCHAR
STARTCHAR at
ENCODING 64
SWIDTH 594 0
DWIDTH 16 0
BBX 16 32 0 -5
VVECTOR 8 27
SWIDTH1 0 -1188
DWIDTH1 0 -32
BITMAP 
0000
0000
0000
0000
0000
07C0
1FF0
3C78
701C
600C
E3CE
C7E6
CE66
CC66
CC66
CC66
CC66
CC66
CE6E
C7FC
E3B8
6000
700C
3C38
1FF0
07C0
0000
0000
0000
0000
0000
0000
ENDCHAR
STARTCHAR A
ENCODING 65
SWIDTH 594 0
DWIDTH 16 0
BBX 16 32 0 -5
VVECTOR 8 27
SWIDTH1 0 -1188
DWIDTH1 0 -32
BITMAP 
0000
0000
0000
0000
0000
0380
07C0
07C0
0EE0
0EE0
1C70
1C70
3838
3838
701C
701C
7FFC
7FFC
7FFC
701C
701C
701C
701C
701C
701C
701C
701C
0000
0000
0000
0000
0000
ENDCHAR
STARTCHAR B
ENCODING 66
SWIDTH 594 0
DWIDTH 16 0
BBX 16 32 0 -5
VVECTOR 8 27
SWIDTH1 0 -1188
DWIDTH1 0 -32
BITMAP 
0000
0000
0000
0000
0000
3FE0
3FF8
3FF8
383C
381C
381C
381C
3838
3FF8
3FF0
3FF8
3838
381C
381C
381C
381C
381C
381C
383C
3FF8
3FF8
3FE0
0000
0000
0000
0000
0000
ENDCHAR
STARTCHAR C
ENCODING 67
SWIDTH 594 0
DWIDTH 16 0
BBX 16 32 0 -5
VVECTOR 8 27
SWIDTH1 0 -1188
DWIDTH1 0 -32
BITMAP 
0000
0000
0000
0000
0000
07E0
1FF8
1FF8
3C3C
381C
381C
381C
3800
3800
3800
3800
3800
3800
3800
3800
381C
381C
381C
3C3C
1FF8
1FF8
07E0
0000
0000
0000
0000
0000
ENDCHAR
STARTCHAR D
ENCODING 68
SWIDTH 594 0
DWIDTH 16 0
BBX 16 32 0 -5
VVECTOR 8 27
SWIDTH1 0 -1188
DWIDTH1 0 -32
BITMAP 
0000
0000
0000
0000
0000
3FE0
3FF8
3FF8
383C
381C
381C
381C
381C
381C
381C
381C
381C
381C
381C
381C
381C
381C
381C
383C
3FF8
3FF8
3FE0
0000
0000
0000
0000
0000
ENDCHAR
STARTCHAR E
ENCODING 69
SWIDTH 594 0
DWIDTH 16 0
BBX 16 32 0 -5
VVECTOR 8 27
SWIDTH1 0 -1188
DWIDTH1 0 -32
BITMAP 
0000
0000
0000
0000
0000
3FFC
3FFC
3FFC
3800
3800
3800
3800
3800
3FF0
3FF0
3FF0
3800
3800
3800
3800
3800
3800
3800
3800
3FFC
3FFC
3FFC
0000
0000
0000
0000
0000
ENDCHAR
STARTCHAR F
ENCODING 70
SWIDTH 594 0
DWIDTH 16 0
BBX 16 32 0 -5
VVECTOR 8 27
SWIDTH1 0 -1188
DWIDTH1 0 -32
BITMAP 
0000
0000
0000
0000
0000
3FFC
3FFC
3FFC
3800
3800
3800
3800
3800
3FF0
3FF0
3FF0
3800
3800
3800
3800
3800
3800
3800
3800
3800
3800
3800
0000
0000
0000
0000
0000
ENDCHAR
STARTCHAR G
ENCODING 71
SWIDTH 594 0
DWIDTH 16 0
BBX 16 32 0 -5
VVECTOR 8 27
SWIDTH1 0 -1188
DWIDTH1 0 -32
BITMAP 
0000
0000
0000
0000
0000
07F8
1FF8
1FF8
3C00
3800
3800
3800
3800
38FC
38FC
38FC
381C
381C
381C
381C
381C
381C
381C
3C3C
1FF8
1FF8
07E0
0000
0000
0000
0000
0000
ENDCHAR
STARTCHAR H
ENCODING 72
SWIDTH 594 0
DWIDTH 16 0
BBX 16 32 0 -5
VVECTOR 8 27
SWIDTH1 0 -1188
DWIDTH1 0 -32
BITMAP 
0000
0000
0000
0000
0000
381C
381C
381C
381C
381C
381C
381C
3FFC
3FFC
3FFC
381C
381C
381C
381C
381C
381C
381C
381C
381C
381C
381C
381C
0000
0000
0000
0000
0000
ENDCHAR
STARTCHAR I
ENCODING 73
SWIDTH 594 0
DWIDTH 16 0
BBX 16 32 0 -5
VVECTOR 8 27
SWIDTH1 0 -1188
DWIDTH1 0 -32
BITMAP 
0000
0000
0000
0000
0000
3FF8
3FF8
3FF8
0380
0380
0380
0380
0380
0380
0380
0380
0380
0380
0380
0380
0380
0380
0380
0380
3FF8
3FF8
3FF8
0000
0000
0000
0000
0000
ENDCHAR
STARTCHAR J
ENCODING 74
SWIDTH 594 0
DWIDTH 16 0
BBX 16 32 0 -5
VVECTOR 8 27
SWIDTH1 0 -1188
DWIDTH1 0 -32
BITMAP 
0000
0000
0000
0000
0000
001C
001C
001C
001C
001C
001C
001C
001C
001C
001C
001C
001C
001C
001C
001C
381C
381C
381C
3C3C
1FF8
1FF8
07E0
0000
0000
0000
0000
0000
ENDCHAR
STARTCHAR K
ENCODING 75
SWIDTH 594 0
DWIDTH 16 0
BBX 16 32 0 -5
VVECTOR 8 27
SWIDTH1 0 -1188
DWIDTH1 0 -32
BITMAP 
0000
0000
0000
0000
0000
703C
7078
70F0
71E0
73C0
7780
7F00
7E00
7F00
7700
7380
7380
71C0
71C0
70E0
70E0
7070
7070
7038
7038
701C
701C
0000
0000
0000
0000
0000
ENDCHAR
STARTCHAR L
ENCODING 76
SWIDTH 594 0
DWIDTH 16 0
BBX 16 32 0 -5
VVECTOR 8 27
SWIDTH1 0 -1188
DWIDTH1 0 -32
BITMAP 
0000
0000
0000
0000
0000
3800
3800
3800
3800
3800
3800
3800
3800
3800
3800
3800
3800
3800
3800
3800
3800
3800
3800
3800
3FFC
3FFC
3FFC
0000
0000
0000
0000
0000
ENDCHAR
STARTCHAR M
ENCODING 77
SWIDTH 594 0
DWIDTH 16 0
BBX 16 32 0 -5
VVECTOR 8 27
SWIDTH1 0 -1188
DWIDTH1 0 -32
BITMAP 
0000
0000
0000
0000
0000
E00E
E00E
F01E
F01E
F83E
F83E
FC7E
FC7E
EEEE
EEEE
E7CE
E7CE
E38E
E38E
E10E
E10E
E00E
E00E
E00E
E00E
E00E
E00E
0000
0000
0000
0000
0000
ENDCHAR
STARTCHAR N
ENCODING 78
SWIDTH 594 0
DWIDTH 16 0
BBX 16 32 0 -5
VVECTOR 8 27
SWIDTH1 0 -1188
DWIDTH1 0 -32
BITMAP 
0000
0000
0000
0000
0000
381C
381C
3C1C
3C1C
3E1C
3E1C
3F1C
3F1C
3B9C
3B9C
39DC
39DC
38FC
38FC
387C
387C
383C
383C
381C
381C
381C
381C
0000
0000
0000
0000
0000
ENDCHAR
STARTCHAR O
ENCODING 79
SWIDTH 594 0
DWIDTH 16 0
BBX 16 32 0 -5
VVECTOR 8 27
SWIDTH1 0 -1188
DWIDTH1 0 -32
BITMAP 
0000
0000
0000
0000
0000
07E0
1FF8
1FF8
3C3C
381C
381C
381C
381C
381C
381C
381C
381C
381C
381C
381C
381C
381C
381C
3C3C
1FF8
1FF8
07E0
0000
0000
0000
0000
0000
ENDCHAR
STARTCHAR P
ENCODING 80
SWIDTH 594 0
DWIDTH 16 0
BBX 16 32 0 -5
VVECTOR 8 27
SWIDTH1 0 -1188
DWIDTH1 0 -32
BITMAP 
0000
0000
0000
0000
0000
3FE0
3FF8
3FF8
383C
381C
381C
381C
381C
381C
381C
381C
383C
3FF8
3FF8
3FE0
3800
3800
3800
3800
3800
3800
3800
0000
0000
0000
0000
0000
ENDCHAR
STARTCHAR Q
ENCODING 81
SWIDTH 594 0
DWIDTH 16 0
BBX 16 32 0 -5
VVECTOR 8 27
SWIDTH1 0 -1188
DWIDTH1 0 -32
BITMAP 
0000
0000
0000
0000
0000
07E0
1FF8
1FF8
3C3C
381C
381C
381C
381C
381C
381C
381C
381C
381C
381C
381C
381C
399C
39DC
3CEC
1F70
1FB8
079C
000C
0000
0000
0000
0000
ENDCHAR
STARTCHAR R
ENCODING 82
SWIDTH 594 0
DWIDTH 16 0
BBX 16 32 0 -5
VVECTOR 8 27
SWIDTH1 0 -1188
DWIDTH1 0 -32
BITMAP 
0000
0000
0000
0000
0000
3FE0
3FF8
3FF8
383C
381C
381C
381C
381C
381C
383C
3FF8
3FF8
3FE0
38E0
3870
3870
3838
3838
381C
381C
380E
380E
0000
0000
0000
0000
0000
ENDCHAR
STARTCHAR S
ENCODING 83
SWIDTH 594 0
DWIDTH 16 0
BBX 16 32 0 -5
VVECTOR 8 27
SWIDTH1 0 -1188
DWIDTH1 0 -32
BITMAP 
0000
0000
0000
0000
0000
07FC
1FFC
1FFC
3C00
3800
3800
3800
3800
3C00
1FE0
1FF8
07F8
003C
001C
001C
001C
001C
001C
003C
3FF8
3FF8
3FE0
0000
0000
0000
0000
0000
ENDCHAR
STARTCHAR T
ENCODING 84
SWIDTH 594 0
DWIDTH 16 0
BBX 16 32 0 -5
VVECTOR 8 27
SWIDTH1 0 -1188
DWIDTH1 0 -32
BITMAP 
0000
0000
0000
0000
0000
3FF8
3FF8
3FF8
0380
0380
0380
0380
0380
0380
0380
0380
0380
0380
0380
0380
0380
0380
0380
0380
0380
0380
0380
0000
0000
0000
0000
0000
ENDCHAR
STARTCHAR U
ENCODING 85
SWIDTH 594 0
DWIDTH 16 0
BBX 16 32 0 -5
VVECTOR 8 27
SWIDTH1 0 -1188
DWIDTH1 0 -32
BITMAP 
0000
0000
0000
0000
0000
381C
381C
381C
381C
381C
381C
381C
381C
381C
381C
381C
381C
381C
381C
381C
381C
381C
381C
3C3C
1FF8
1FF8
07E0
0000
0000
0000
0000
0000
ENDCHAR
STARTCHAR V
ENCODING 86
SWIDTH 594 0
DWIDTH 16 0
BBX 16 32 0 -5
VVECTOR 8 27
SWIDTH1 0 -1188
DWIDTH1 0 -32
BITMAP 
0000
0000
0000
0000
0000
701C
701C
701C
701C
701C
701C
701C
701C
701C
701C
701C
701C
701C
3838
3838
1C70
1C70
0EE0
0EE0
07C0
07C0
0380
0000
0000
0000
0000
0000
ENDCHAR
STARTCHAR W
ENCODING 87
SWIDTH 594 0
DWIDTH 16 0
BBX 16 32 0 -5
VVECTOR 8 27
SWIDTH1 0 -1188
DWIDTH1 0 -32
BITMAP 
0000
0000
0000
0000
0000
E01C
E01C
E01C
E01C
E01C
E01C
E01C
E01C
E01C
E01C
E01C
E01C
E31C
E79C
EFDC
FFFC
FCFC
F87C
F03C
E01C
C00C
8004
0000
0000
0000
0000
0000
ENDCHAR
STARTCHAR X
ENCODING 88
SWIDTH 594 0
DWIDTH 16 0
BBX 16 32 0 -5
VVECTOR 8 27
SWIDTH1 0 -1188
DWIDTH1 0 -32
BITMAP 
0000
0000
0000
0000
0000
701C
701C
3838
3838
1C70
1C70
0EE0
0EE0
07C0
07C0
0380
07C0
07C0
0EE0
0EE0
1C70
1C70
3838
3838
701C
701C
701C
0000
0000
0000
0000
0000
ENDCHAR
STARTCHAR Y
ENCODING 89
SWIDTH 594 0
DWIDTH 16 0
BBX 16 32 0 -5
VVECTOR 8 27
SWIDTH1 0 -1188
DWIDTH1 0 -32
BITMAP 
0000
0000
0000
0000
0000
701C
701C
701C
3838
3838
1C70
1C70
0EE0
0EE0
07C0
07C0
0380
0380
0380
0380
0380
0380
0380
0380
0380
0380
0380
0000
0000
0000
0000
0000
ENDCHAR
STARTCHAR Z
ENCODING 90
SWIDTH 594 0
DWIDTH 16 0
BBX 16 32 0 -5
VVECTOR 8 27
SWIDTH1 0 -1188
DWIDTH1 0 -32
BITMAP 
0000
0000
0000
0000
0000
3FFC
3FFC
3FFC
0038
0038
0070
0070
00E0
00E0
01C0
01C0
0380
0380
0700
0700
0E00
0E00
1C00
1C00
3FFC
3FFC
3FFC
0000
0000
0000
0000
0000
ENDCHAR
STARTCHAR bracketleft
ENCODING 91
SWIDTH 594 0
DWIDTH 16 0
BBX 16 32 0 -5
VVECTOR 8 27
SWIDTH1 0 -1188
DWIDTH1 0 -32
BITMAP 
0000
0000
0000
0000
0000
03FC
03FC
03FC
0380
0380
0380
0380
0380
0380
0380
0380
0380
0380
0380
0380
0380
0380
0380
0380
03FC
03FC
03FC
0000
0000
0000
0000
0000
ENDCHAR
STARTCHAR backslash
ENCODING 92
SWIDTH 594 0
DWIDTH 16 0
BBX 16 32 0 -5
VVECTOR 8 27
SWIDTH1 0 -1188
DWIDTH1 0 -32
BITMAP 
0000
0000
0000
0000
0000
7000
7000
3800
3800
1C00
1C00
0E00
0E00
0700
0700
0380
0380
01C0
01C0
00E0
00E0
0070
0070
0038
0038
001C
001C
0000
0000
0000
0000
0000
ENDCHAR
STARTCHAR bracketright
ENCODING 93
SWIDTH 594 0
DWIDTH 16 0
BBX 16 32 0 -5
VVECTOR 8 27
SWIDTH1 0 -1188
DWIDTH1 0 -32
BITMAP 
0000
0000
0000
0000
0000
3FC0
3FC0
3FC0
01C0
01C0
01C0
01C0
01C0
01C0
01C0
01C0
01C0
01C0
01C0
01C0
01C0
01C0
01C0
01C0
3FC0
3FC0
3FC0
0000
0000
0000
0000
0000
ENDCHAR
STARTCHAR asciicircum
ENCODING 94
SWIDTH 594 0
DWIDTH 16 0
BBX 16 32 0 -5
VVECTOR 8 27
SWIDTH1 0 -1188
DWIDTH1 0 -32
BITMAP 
0000
0000
0000
0000
0000
0300
0300
0780
0780
0FC0
0FC0
1FE0
1CE0
3CF0
3870
7878
7038
7038
0000
0000
0000
0000
0000
0000
0000
0000
0000
0000
0000
0000
0000
0000
ENDCHAR
STARTCHAR underscore
ENCODING 95
SWIDTH 594 0
DWIDTH 16 0
BBX 16 32 0 -5
VVECTOR 8 27
SWIDTH1 0 -1188
DWIDTH1 0 -32
BITMAP 
0000
0000
0000
0000
0000
0000
0000
0000
0000
0000
0000
0000
0000
0000
0000
0000
0000
0000
0000
0000
0000
0000
0000
0000
0000
0000
0000
0000
0000
FFFC
FFFC
FFFC
ENDCHAR
STARTCHAR grave
ENCODING 96
SWIDTH 594 0
DWIDTH 16 0
BBX 16 32 0 -5
VVECTOR 8 27
SWIDTH1 0 -1188
DWIDTH1 0 -32
BITMAP 
0000
0000
0000
0000
1E00
0F00
0780
03C0
01E0
0000
0000
0000
0000
0000
0000
0000
0000
0000
0000
0000
0000
0000
0000
0000
0000
0000
0000
0000
0000
0000
0000
0000
ENDCHAR
STARTCHAR a
ENCODING 97
SWIDTH 594 0
DWIDTH 16 0
BBX 16 32 0 -5
VVECTOR 8 27
SWIDTH1 0 -1188
DWIDTH1 0 -32
BITMAP 
0000
0000
0000
0000
0000
0000
0000
0000
0000
0000
0000
0FE0
0FF8
0FF8
003C
001C
001C
07FC
1FFC
1FFC
3C1C
381C
381C
3C1C
1FFC
1FFC
07FC
0000
0000
0000
0000
0000
ENDCHAR
STARTCHAR b
ENCODING 98
SWIDTH 594 0
DWIDTH 16 0
BBX 16 32 0 -5
VVECTOR 8 27
SWIDTH1 0 -1188
DWIDTH1 0 -32
BITMAP 
0000
0000
0000
0000
0000
3800
3800
3800
3800
3800
3800
3FE0
3FF8
3FF8
383C
381C
381C
381C
381C
381C
381C
381C
381C
383C
3FF8
3FF8
3FE0
0000
0000
0000
0000
0000
ENDCHAR
STARTCHAR c
ENCODING 99
SWIDTH 594 0
DWIDTH 16 0
BBX 16 32 0 -5
VVECTOR 8 27
SWIDTH1 0 -1188
DWIDTH1 0 -32
BITMAP 
0000
0000
0000
0000
0000
0000
0000
0000
0000
0000
0000
07F0
1FF0
1FF0
3C00
3800
3800
3800
3800
3800
3800
3800
3800
3C00
1FFC
1FFC
07FC
0000
0000
0000
0000
0000
ENDCHAR
STARTCHAR d
ENCODING 100
SWIDTH 594 0
DWIDTH 16 0
BBX 16 32 0 -5
VVECTOR 8 27
SWIDTH1 0 -1188
DWIDTH1 0 -32
BITMAP 
0000
0000
0000
0000
0000
001C
001C
001C
001C
001C
001C
07FC
1FFC
1FFC
3C3C
381C
381C
381C
381C
381C
381C
381C
381C
3C1C
1FFC
1FFC
07FC
0000
0000
0000
0000
0000
ENDCHAR
STARTCHAR e
ENCODING 101
SWIDTH 594 0
DWIDTH 16 0
BBX 16 32 0 -5
VVECTOR 8 27
SWIDTH1 0 -1188
DWIDTH1 0 -32
BITMAP 
0000
0000
0000
0000
0000
0000
0000
0000
0000
0000
0000
07E0
1FF8
1FF8
3C3C
381C
381C
3FFC
3FFC
3FFC
3800
3800
3800
3C00
1FFC
1FFC
07FC
0000
0000
0000
0000
0000
ENDCHAR
STARTCHAR f
ENCODING 102
SWIDTH 594 0
DWIDTH 16 0
BBX 16 32 0 -5
VVECTOR 8 27
SWIDTH1 0 -1188
DWIDTH1 0 -32
BITMAP 
0000
0000
0000
0000
0000
0078
01F8
01F8
03C0
0380
0380
0380
0380
3FF8
3FF8
3FF8
0380
0380
0380
0380
0380
0380
0380
0380
0380
0380
0380
0000
0000
0000
0000
0000
ENDCHAR
STARTCHAR g
ENCODING 103
SWIDTH 594 0
DWIDTH 16 0
BBX 16 32 0 -5
VVECTOR 8 27
SWIDTH1 0 -1188
DWIDTH1 0 -32
BITMAP 
0000
0000
0000
0000
0000
0000
0000
0000
0000
0000
0000
07FC
1FFC
1FFC
3C1C
381C
381C
381C
381C
381C
381C
381C
3C1C
1FFC
1FFC
07FC
001C
001C
003C
3FF8
3FF8
3FE0
ENDCHAR
STARTCHAR h
ENCODING 104
SWIDTH 594 0
DWIDTH 16 0
BBX 16 32 0 -5
VVECTOR 8 27
SWIDTH1 0 -1188
DWIDTH1 0 -32
BITMAP 
0000
0000
0000
0000
0000
3800
3800
3800
3800
3800
3800
3FE0
3FF8
3FF8
383C
381C
381C
381C
381C
381C
381C
381C
381C
381C
381C
381C
381C
0000
0000
0000
0000
0000
ENDCHAR
STARTCHAR i
ENCODING 105
SWIDTH 594 0
DWIDTH 16 0
BBX 16 32 0 -5
VVECTOR 8 27
SWIDTH1 0 -1188
DWIDTH1 0 -32
BITMAP 
0000
0000
0000
0000
0000
0000
0380
0380
0380
0000
0000
0780
0780
0780
0380
0380
0380
0380
0380
0380
0380
0380
0380
0380
0FE0
0FE0
0FE0
0000
0000
0000
0000
0000
ENDCHAR
STARTCHAR j
ENCODING 106
SWIDTH 594 0
DWIDTH 16 0
BBX 16 32 0 -5
VVECTOR 8 27
SWIDTH1 0 -1188
DWIDTH1 0 -32
BITMAP 
0000
0000
0000
0000
0000
0000
0070
0070
0070
0000
0000
0070
0070
0070
0070
0070
0070
0070
0070
0070
0070
0070
0070
0070
0070
0070
0070
0070
00F0
1FE0
1FE0
1F80
ENDCHAR
STARTCHAR k
ENCODING 107
SWIDTH 594 0
DWIDTH 16 0
BBX 16 32 0 -5
VVECTOR 8 27
SWIDTH1 0 -1188
DWIDTH1 0 -32
BITMAP 
0000
0000
0000
0000
0000
3800
3800
3800
3800
3800
3800
3878
38F0
39E0
3BC0
3F80
3F00
3F80
3B80
39C0
39C0
38E0
38E0
3870
3870
3838
3838
0000
0000
0000
0000
0000
ENDCHAR
STARTCHAR l
ENCODING 108
SWIDTH 594 0
DWIDTH 16 0
BBX 16 32 0 -5
VVECTOR 8 27
SWIDTH1 0 -1188
DWIDTH1 0 -32
BITMAP 
0000
0000
0000
0000
0000
0F80
0F80
0F80
0380
0380
0380
0380
0380
0380
0380
0380
0380
0380
0380
0380
0380
0380
0380
0380
0FE0
0FE0
0FE0
0000
0000
0000
0000
0000
ENDCHAR
STARTCHAR m
ENCODING 109
SWIDTH 594 0
DWIDTH 16 0
BBX 16 32 0 -5
VVECTOR 8 27
SWIDTH1 0 -1188
DWIDTH1 0 -32
BITMAP 
0000
0000
0000
0000
0000
0000
0000
0000
0000
0000
0000
1C70
7EFC
7FFC
F7DE
E38E
E38E
E38E
E38E
E38E
E38E
E38E
E38E
E38E
E38E
E38E
E38E
0000
0000
0000
0000
0000
ENDCHAR
STARTCHAR n
ENCODING 110
SWIDTH 594 0
DWIDTH 16 0
BBX 16 32 0 -5
VVECTOR 8 27
SWIDTH1 0 -1188
DWIDTH1 0 -32
BITMAP 
0000
0000
0000
0000
0000
0000
0000
0000
0000
0000
0000
07E0
1FF8
1FF8
3C3C
381C
381C
381C
381C
381C
381C
381C
381C
381C
381C
381C
381C
0000
0000
0000
0000
0000
ENDCHAR
STARTCHAR o
ENCODING 111
SWIDTH 594 0
DWIDTH 16 0
BBX 16 32 0 -5
VVECTOR 8 27
SWIDTH1 0 -1188
DWIDTH1 0 -32
BITMAP 
0000
0000
0000
0000
0000
0000
0000
0000
0000
0000
0000
07E0
1FF8
1FF8
3C3C
381C
381C
381C
381C
381C
381C
381C
381C
381C
3C3C
1FF8
1FF8
07E0
0000
0000
0000
0000
ENDCHAR
STARTCHAR p
ENCODING 112
SWIDTH 594 0
DWIDTH 16 0
BBX 16 32 0 -5
VVECTOR 8 27
SWIDTH1 0 -1188
DWIDTH1 0 -32
BITMAP 
0000
0000
0000
0000
0000
0000
0000
0000
0000
0000
0000
3FE0
3FF8
3FF8
383C
381C
381C
381C
381C
381C
381C
381C
381C
383C
3FF8
3FF8
3FE0
3800
3800
3800
3800
3800
ENDCHAR
STARTCHAR q
ENCODING 113
SWIDTH 594 0
DWIDTH 16 0
BBX 16 32 0 -5
VVECTOR 8 27
SWIDTH1 0 -1188
DWIDTH1 0 -32
BITMAP 
0000
0000
0000
0000
0000
0000
0000
0000
0000
0000
0000
07FC
1FFC
1FFC
3C1C
381C
381C
381C
381C
381C
381C
381C
381C
3C1C
1FFC
1FFC
07FC
001C
001C
001C
001C
001C
ENDCHAR
STARTCHAR r
ENCODING 114
SWIDTH 594 0
DWIDTH 16 0
BBX 16 32 0 -5
VVECTOR 8 27
SWIDTH1 0 -1188
DWIDTH1 0 -32
BITMAP 
0000
0000
0000
0000
0000
0000
0000
0000
0000
0000
0000
3FE0
3FF8
3FF8
383C
381C
381C
3800
3800
3800
3800
3800
3800
3800
3800
3800
3800
0000
0000
0000
0000
0000
ENDCHAR
STARTCHAR s
ENCODING 115
SWIDTH 594 0
DWIDTH 16 0
BBX 16 32 0 -5
VVECTOR 8 27
SWIDTH1 0 -1188
DWIDTH1 0 -32
BITMAP 
0000
0000
0000
0000
0000
0000
0000
0000
0000
0000
0000
07FC
1FFC
1FFC
3C00
3800
3C00
1FE0
1FF8
07F8
003C
001C
001C
003C
3FF8
3FF8
3FE0
0000
0000
0000
0000
0000
ENDCHAR
STARTCHAR t
ENCODING 116
SWIDTH 594 0
DWIDTH 16 0
BBX 16 32 0 -5
VVECTOR 8 27
SWIDTH1 0 -1188
DWIDTH1 0 -32
BITMAP 
0000
0000
0000
0000
0000
0000
0000
0380
0380
0380
0380
3FF8
3FF8
3FF8
0380
0380
0380
0380
0380
0380
0380
0380
0380
03C0
01F8
01F8
0078
0000
0000
0000
0000
0000
ENDCHAR
STARTCHAR u
ENCODING 117
SWIDTH 594 0
DWIDTH 16 0
BBX 16 32 0 -5
VVECTOR 8 27
SWIDTH1 0 -1188
DWIDTH1 0 -32
BITMAP 
0000
0000
0000
0000
0000
0000
0000
0000
0000
0000
0000
381C
381C
381C
381C
381C
381C
381C
381C
381C
381C
381C
381C
3C1C
1FFC
1FFC
07FC
0000
0000
0000
0000
0000
ENDCHAR
STARTCHAR v
ENCODING 118
SWIDTH 594 0
DWIDTH 16 0
BBX 16 32 0 -5
VVECTOR 8 27
SWIDTH1 0 -1188
DWIDTH1 0 -32
BITMAP 
0000
0000
0000
0000
0000
0000
0000
0000
0000
0000
0000
381C
381C
381C
381C
381C
381C
381C
381C
381C
1C38
1C38
0E70
0E70
07E0
07E0
03C0
0000
0000
0000
0000
0000
ENDCHAR
STARTCHAR w
ENCODING 119
SWIDTH 594 0
DWIDTH 16 0
BBX 16 32 0 -5
VVECTOR 8 27
SWIDTH1 0 -1188
DWIDTH1 0 -32
BITMAP 
0000
0000
0000
0000
0000
0000
0000
0000
0000
0000
0000
E01C
E01C
E31C
E31C
E79C
E79C
EFDC
EFDC
FCFC
FCFC
F87C
F87C
F03C
F03C
E01C
E01C
0000
0000
0000
0000
0000
ENDCHAR
STARTCHAR x
ENCODING 120
SWIDTH 594 0
DWIDTH 16 0
BBX 16 32 0 -5
VVECTOR 8 27
SWIDTH1 0 -1188
DWIDTH1 0 -32
BITMAP 
0000
0000
0000
0000
0000
0000
0000
0000
0000
0000
0000
3838
1C70
1C70
0EE0
0EE0
07C0
07C0
0380
07C0
07C0
0EE0
0EE0
1C70
1C70
3838
3838
0000
0000
0000
0000
0000
ENDCHAR
STARTCHAR y
ENCODING 121
SWIDTH 594 0
DWIDTH 16 0
BBX 16 32 0 -5
VVECTOR 8 27
SWIDTH1 0 -1188
DWIDTH1 0 -32
BITMAP 
0000
0000
0000
0000
0000
0000
0000
0000
0000
0000
0000
381C
381C
381C
381C
381C
381C
381C
381C
381C
381C
381C
3C1C
1FFC
1FFC
07FC
001C
001C
003C
3FF8
3FF8
3FE0
ENDCHAR
STARTCHAR z
ENCODING 122
SWIDTH 594 0
DWIDTH 16 0
BBX 16 32 0 -5
VVECTOR 8 27
SWIDTH1 0 -1188
DWIDTH1 0 -32
BITMAP 
0000
0000
0000
0000
0000
0000
0000
0000
0000
0000
0000
3FFC
3FFC
3FFC
003C
0078
00F0
01E0
03C0
0780
0F00
1E00
3C00
3800
3FFC
3FFC
3FFC
0000
0000
0000
0000
0000
ENDCHAR
STARTCHAR braceleft
ENCODING 123
SWIDTH 594 0
DWIDTH 16 0
BBX 16 32 0 -5
VVECTOR 8 27
SWIDTH1 0 -1188
DWIDTH1 0 -32
BITMAP 
0000
0000
0000
003E
00FE
00E0
01C0
01C0
01C0
01C0
01C0
01C0
03C0
0780
0780
3F00
3F00
0780
0780
03C0
01C0
01C0
01C0
01C0
01C0
01C0
00E0
00FE
003E
0000
0000
0000
ENDCHAR
STARTCHAR bar
ENCODING 124
SWIDTH 594 0
DWIDTH 16 0
BBX 16 32 0 -5
VVECTOR 8 27
SWIDTH1 0 -1188
DWIDTH1 0 -32
BITMAP 
0000
0000
0000
0380
0380
0380
0380
0380
0380
0380
0380
0380
0380
0380
0380
0380
0380
0380
0380
0380
0380
0380
0380
0380
0380
0380
0380
0380
0380
0000
0000
0000
ENDCHAR
STARTCHAR braceright
ENCODING 125
SWIDTH 594 0
DWIDTH 16 0
BBX 16 32 0 -5
VVECTOR 8 27
SWIDTH1 0 -1188
DWIDTH1 0 -32
BITMAP 
0000
0000
0000
7C00
7F00
0700
0380
0380
0380
0380
0380
0380
03C0
03E0
01E0
00FC
00FC
01E0
03E0
03C0
0380
0380
0380
0380
0380
0380
0700
7F00
7C00
0000
0000
0000
ENDCHAR
STARTCHAR asciitilde
ENCODING 126
SWIDTH 594 0
DWIDTH 16 0
BBX 16 32 0 -5
VVECTOR 8 27
SWIDTH1 0 -1188
DWIDTH1 0 -32
BITMAP 
0000
0000
0000
0000
0000
0000
0000
0C00
3F02
3F02
7F86
67CE
43FC
41FC
00F0
0000
0000
0000
0000
0000
0000
0000
0000
0000
0000
0000
0000
0000
0000
0000
0000
0000
ENDCHAR
STARTCHAR house
ENCODING 127
SWIDTH 594 0
DWIDTH 16 0
BBX 16 32 0 -5
VVECTOR 8 27
SWIDTH1 0 -1188
DWIDTH1 0 -32
BITMAP 
0000
0000
0000
0000
0000
0000
0000
0000
0000
0000
0380
0380
07C0
07C0
0EE0
0EE0
1C70
1C70
3838
3838
701C
701C
E00E
FFFE
FFFE
FFFE
0000
0000
0000
0000
0000
0000
ENDCHAR
STARTCHAR Ccedilla
ENCODING 128
SWIDTH 594 0
DWIDTH 16 0
BBX 16 32 0 -5
VVECTOR 8 27
SWIDTH1 0 -1188
DWIDTH1 0 -32
BITMAP 
0000
0000
0000
0000
0000
07E0
1FF8
1FF8
3C3C
381C
381C
381C
3800
3800
3800
3800
3800
3800
3800
3800
381C
381C
381C
3C3C
1FF8
1FF8
07E0
00C0
01C0
0700
0000
0000
ENDCHAR
STARTCHAR udieresis
ENCODING 129
SWIDTH 594 0
DWIDTH 16 0
BBX 16 32 0 -5
VVECTOR 8 27
SWIDTH1 0 -1188
DWIDTH1 0 -32
BITMAP 
0000
0000
0000
0000
0000
1C38
1C38
1C38
0000
0000
0000
381C
381C
381C
381C
381C
381C
381C
381C
381C
381C
381C
381C
3C1C
1FFC
1FFC
07FC
0000
0000
0000
0000
0000
ENDCHAR
STARTCHAR eacute
ENCODING 130
SWIDTH 594 0
DWIDTH 16 0
BBX 16 32 0 -5
VVECTOR 8 27
SWIDTH1 0 -1188
DWIDTH1 0 -32
BITMAP 
0000
0000
0000
0000
0070
00E0
01C0
0380
0700
0000
0000
07E0
1FF8
1FF8
3C3C
381C
381C
3FFC
3FFC
3FFC
3800
3800
3800
3C00
1FFC
1FFC
07FC
0000
0000
0000
0000
0000
ENDCHAR
STARTCHAR acircumflex
ENCODING 131
SWIDTH 594 0
DWIDTH 16 0
BBX 16 32 0 -5
VVECTOR 8 27
SWIDTH1 0 -1188
DWIDTH1 0 -32
BITMAP 
0000
0000
0000
0000
0180
03C0
07E0
0E70
1C38
0000
0000
0FE0
0FF8
0FF8
003C
001C
001C
07FC
1FFC
1FFC
3C1C
381C
381C
3C1C
1FFC
1FFC
07FC
0000
0000
0000
0000
0000
ENDCHAR
STARTCHAR adieresis
ENCODING 132
SWIDTH 594 0
DWIDTH 16 0
BBX 16 32 0 -5
VVECTOR 8 27
SWIDTH1 0 -1188
DWIDTH1 0 -32
BITMAP 
0000
0000
0000
0000
0000
1C38
1C38
1C38
0000
0000
0000
0FE0
0FF8
0FF8
003C
001C
001C
07FC
1FFC
1FFC
3C1C
381C
381C
3C1C
1FFC
1FFC
07FC
0000
0000
0000
0000
0000
ENDCHAR
STARTCHAR agrave
ENCODING 133
SWIDTH 594 0
DWIDTH 16 0
BBX 16 32 0 -5
VVECTOR 8 27
SWIDTH1 0 -1188
DWIDTH1 0 -32
BITMAP 
0000
0000
0000
0000
0E00
0700
0380
01C0
00E0
0000
0000
0FE0
0FF8
0FF8
003C
001C
001C
07FC
1FFC
1FFC
3C1C
381C
381C
3C1C
1FFC
1FFC
07FC
0000
0000
0000
0000
0000
ENDCHAR
STARTCHAR aring
ENCODING 134
SWIDTH 594 0
DWIDTH 16 0
BBX 16 32 0 -5
VVECTOR 8 27
SWIDTH1 0 -1188
DWIDTH1 0 -32
BITMAP 
0000
0000
0000
03C0
07E0
0660
0660
07E0
03C0
0000
0000
0FE0
0FF8
0FF8
003C
001C
001C
07FC
1FFC
1FFC
3C1C
381C
381C
3C1C
1FFC
1FFC
07FC
0000
0000
0000
0000
0000
ENDCHAR
STARTCHAR ccedilla
ENCODING 135
SWIDTH 594 0
DWIDTH 16 0
BBX 16 32 0 -5
VVECTOR 8 27
SWIDTH1 0 -1188
DWIDTH1 0 -32
BITMAP 
0000
0000
0000
0000
0000
0000
0000
0000
0000
0000
0000
07F0
1FF0
1FF0
3C00
3800
3800
3800
3800
3800
3800
3800
3800
3C00
1FFC
1FFC
07FC
0060
00E0
0380
0000
0000
ENDCHAR
STARTCHAR ecircumflex
ENCODING 136
SWIDTH 594 0
DWIDTH 16 0
BBX 16 32 0 -5
VVECTOR 8 27
SWIDTH1 0 -1188
DWIDTH1 0 -32
BITMAP 
0000
0000
0000
0000
0180
03C0
07E0
0E70
1C38
0000
0000
07E0
1FF8
1FF8
3C3C
381C
381C
3FFC
3FFC
3FFC
3800
3800
3800
3C00
1FFC
1FFC
07FC
0000
0000
0000
0000
0000
ENDCHAR
STARTCHAR edieresis
ENCODING 137
SWIDTH 594 0
DWIDTH 16 0
BBX 16 32 0 -5
VVECTOR 8 27
SWIDTH1 0 -1188
DWIDTH1 0 -32
BITMAP 
0000
0000
0000
0000
0000
1C38
1C38
1C38
0000
0000
0000
07E0
1FF8
1FF8
3C3C
381C
381C
3FFC
3FFC
3FFC
3800
3800
3800
3C00
1FFC
1FFC
07FC
0000
0000
0000
0000
0000
ENDCHAR
STARTCHAR egrave
ENCODING 138
SWIDTH 594 0
DWIDTH 16 0
BBX 16 32 0 -5
VVECTOR 8 27
SWIDTH1 0 -1188
DWIDTH1 0 -32
BITMAP 
0000
0000
0000
0000
0E00
0700
0380
01C0
00E0
0000
0000
07E0
1FF8
1FF8
3C3C
381C
381C
3FFC
3FFC
3FFC
3800
3800
3800
3C00
1FFC
1FFC
07FC
0000
0000
0000
0000
0000
ENDCHAR
STARTCHAR idieresis
ENCODING 139
SWIDTH 594 0
DWIDTH 16 0
BBX 16 32 0 -5
VVECTOR 8 27
SWIDTH1 0 -1188
DWIDTH1 0 -32
BITMAP 
0000
0000
0000
0000
0000
1C38
1C38
1C38
0000
0000
0000
0780
0780
0780
0380
0380
0380
0380
0380
0380
0380
0380
0380
0380
0FE0
0FE0
0FE0
0000
0000
0000
0000
0000
ENDCHAR
STARTCHAR icircumflex
ENCODING 140
SWIDTH 594 0
DWIDTH 16 0
BBX 16 32 0 -5
VVECTOR 8 27
SWIDTH1 0 -1188
DWIDTH1 0 -32
BITMAP 
0000
0000
0000
0000
0180
03C0
07E0
0E70
1C38
0000
0000
0780
0780
0780
0380
0380
0380
0380
0380
0380
0380
0380
0380
0380
0FE0
0FE0
0FE0
0000
0000
0000
0000
0000
ENDCHAR
STARTCHAR igrave
ENCODING 141
SWIDTH 594 0
DWIDTH 16 0
BBX 16 32 0 -5
VVECTOR 8 27
SWIDTH1 0 -1188
DWIDTH1 0 -32
BITMAP 
0000
0000
0000
0000
0E00
0700
0380
01C0
00E0
0000
0000
0780
0780
0780
0380
0380
0380
0380
0380
0380
0380
0380
0380
0380
0FE0
0FE0
0FE0
0000
0000
0000
0000
0000
ENDCHAR
STARTCHAR Adieresis
ENCODING 142
SWIDTH 594 0
DWIDTH 16 0
BBX 16 32 0 -5
VVECTOR 8 27
SWIDTH1 0 -1188
DWIDTH1 0 -32
BITMAP 
0000
3838
3838
3838
0000
0380
07C0
07C0
0EE0
0EE0
1C70
1C70
3838
3838
701C
701C
7FFC
7FFC
7FFC
701C
701C
701C
701C
701C
701C
701C
701C
0000
0000
0000
0000
0000
ENDCHAR
STARTCHAR Aring
ENCODING 143
SWIDTH 594 0
DWIDTH 16 0
BBX 16 32 0 -5
VVECTOR 8 27
SWIDTH1 0 -1188
DWIDTH1 0 -32
BITMAP 
0000
07C0
0C60
0C60
07C0
0380
07C0
07C0
0EE0
0EE0
1C70
1C70
3838
3838
701C
701C
7FFC
7FFC
7FFC
701C
701C
701C
701C
701C
701C
701C
701C
0000
0000
0000
0000
0000
ENDCHAR
STARTCHAR Eacute
ENCODING 144
SWIDTH 594 0
DWIDTH 16 0
BBX 16 32 0 -5
VVECTOR 8 27
SWIDTH1 0 -1188
DWIDTH1 0 -32
BITMAP 
0000
0038
0070
00E0
01C0
0000
3FFC
3FFC
3FFC
3800
3800
3800
3800
3800
3FF0
3FF0
3FF0
3800
3800
3800
3800
3800
3800
3800
3FFC
3FFC
3FFC
0000
0000
0000
0000
0000
ENDCHAR
STARTCHAR ae
ENCODING 145
SWIDTH 594 0
DWIDTH 16 0
BBX 16 32 0 -5
VVECTOR 8 27
SWIDTH1 0 -1188
DWIDTH1 0 -32
BITMAP 
0000
0000
0000
0000
0000
0000
0000
0000
0000
0000
0000
7C70
7EFC
7FFC
07DE
038E
038E
1FFE
7FFE
7FFE
F380
E380
E380
F380
7FFE
7FFE
1FFE
0000
0000
0000
0000
0000
ENDCHAR
STARTCHAR AE
ENCODING 146
SWIDTH 594 0
DWIDTH 16 0
BBX 16 32 0 -5
VVECTOR 8 27
SWIDTH1 0 -1188
DWIDTH1 0 -32
BITMAP 
0000
0000
0000
0000
0000
03FC
0FFC
0FFC
1F80
1F80
3B80
3B80
7380
73FC
E3FC
E3FC
FF80
FF80
FF80
E380
E380
E380
E380
E380
E3FC
E3FC
E3FC
0000
0000
0000
0000
0000
ENDCHAR
STARTCHAR ocircumflex
ENCODING 147
SWIDTH 594 0
DWIDTH 16 0
BBX 16 32 0 -5
VVECTOR 8 27
SWIDTH1 0 -1188
DWIDTH1 0 -32
BITMAP 
0000
0000
0000
0180
03C0
07E0
0E70
1C38
0000
0000
07E0
1FF8
1FF8
3C3C
381C
381C
381C
381C
381C
381C
381C
381C
381C
381C
3C3C
1FF8
1FF8
07E0
0000
0000
0000
0000
ENDCHAR
STARTCHAR odieresis
ENCODING 148
SWIDTH 594 0
DWIDTH 16 0
BBX 16 32 0 -5
VVECTOR 8 27
SWIDTH1 0 -1188
DWIDTH1 0 -32
BITMAP 
0000
0000
0000
0000
0000
1C38
1C38
1C38
0000
0000
07E0
1FF8
1FF8
3C3C
381C
381C
381C
381C
381C
381C
381C
381C
381C
381C
3C3C
1FF8
1FF8
07E0
0000
0000
0000
0000
ENDCHAR
STARTCHAR ograve
ENCODING 149
SWIDTH 594 0
DWIDTH 16 0
BBX 16 32 0 -5
VVECTOR 8 27
SWIDTH1 0 -1188
DWIDTH1 0 -32
BITMAP 
0000
0000
0000
1C00
0E00
0700
0380
01C0
0000
0000
07E0
1FF8
1FF8
3C3C
381C
381C
381C
381C
381C
381C
381C
381C
381C
381C
3C3C
1FF8
1FF8
07E0
0000
0000
0000
0000
ENDCHAR
STARTCHAR ucircumflex
ENCODING 150
SWIDTH 594 0
DWIDTH 16 0
BBX 16 32 0 -5
VVECTOR 8 27
SWIDTH1 0 -1188
DWIDTH1 0 -32
BITMAP 
0000
0000
0000
0180
03C0
07E0
0E70
1C38
0000
0000
0000
381C
381C
381C
381C
381C
381C
381C
381C
381C
381C
381C
381C
3C1C
1FFC
1FFC
07FC
0000
0000
0000
0000
0000
ENDCHAR
STARTCHAR ugrave
ENCODING 151
SWIDTH 594 0
DWIDTH 16 0
BBX 16 32 0 -5
VVECTOR 8 27
SWIDTH1 0 -1188
DWIDTH1 0 -32
BITMAP 
0000
0000
0000
1C00
0E00
0700
0380
01C0
0000
0000
0000
381C
381C
381C
381C
381C
381C
381C
381C
381C
381C
381C
381C
3C1C
1FFC
1FFC
07FC
0000
0000
0000
0000
0000
ENDCHAR
STARTCHAR ydieresis
ENCODING 152
SWIDTH 594 0
DWIDTH 16 0
BBX 16 32 0 -5
VVECTOR 8 27
SWIDTH1 0 -1188
DWIDTH1 0 -32
BITMAP 
0000
0000
0000
0000
0000
1C38
1C38
1C38
0000
0000
0000
381C
381C
381C
381C
381C
381C
381C
381C
381C
381C
381C
3C1C
1FFC
1FFC
07FC
001C
001C
003C
3FF8
3FF8
3FE0
ENDCHAR
STARTCHAR Odieresis
ENCODING 153
SWIDTH 594 0
DWIDTH 16 0
BBX 16 32 0 -5
VVECTOR 8 27
SWIDTH1 0 -1188
DWIDTH1 0 -32
BITMAP 
0000
1C38
1C38
1C38
0000
07E0
1FF8
1FF8
3C3C
381C
381C
381C
381C
381C
381C
381C
381C
381C
381C
381C
381C
381C
381C
3C3C
1FF8
1FF8
07E0
0000
0000
0000
0000
0000
ENDCHAR
STARTCHAR Udieresis
ENCODING 154
SWIDTH 594 0
DWIDTH 16 0
BBX 16 32 0 -5
VVECTOR 8 27
SWIDTH1 0 -1188
DWIDTH1 0 -32
BITMAP 
0000
1C38
1C38
1C38
0000
0000
381C
381C
381C
381C
381C
381C
381C
381C
381C
381C
381C
381C
381C
381C
381C
381C
381C
3C3C
1FF8
1FF8
07E0
0000
0000
0000
0000
0000
ENDCHAR
STARTCHAR cent
ENCODING 155
SWIDTH 594 0
DWIDTH 16 0
BBX 16 32 0 -5
VVECTOR 8 27
SWIDTH1 0 -1188
DWIDTH1 0 -32
BITMAP 
0000
0000
0000
0000
0180
0180
0180
0180
0180
07E0
1FF8
1FF8
3C3C
381C
3800
3800
3800
3800
381C
3C3C
1FF8
1FF8
07E0
0180
0180
0180
0180
0180
0000
0000
0000
0000
ENDCHAR
STARTCHAR sterling
ENCODING 156
SWIDTH 594 0
DWIDTH 16 0
BBX 16 32 0 -5
VVECTOR 8 27
SWIDTH1 0 -1188
DWIDTH1 0 -32
BITMAP 
0000
0000
0000
007C
01FC
03FC
0780
0700
0F00
0E00
0E00
0E00
0E00
0E00
0E00
0E00
7FF8
7FF8
0E00
0E00
0E00
0E00
0E00
0E00
1FFE
3FFE
7FFE
0000
0000
0000
0000
0000
ENDCHAR
STARTCHAR yen
ENCODING 157
SWIDTH 594 0
DWIDTH 16 0
BBX 16 32 0 -5
VVECTOR 8 27
SWIDTH1 0 -1188
DWIDTH1 0 -32
BITMAP 
0000
0000
0000
0000
3838
3838
3838
3838
3838
3838
3838
3C78
3EF8
1FF0
0FE0
07C0
0380
0380
3FF8
3FF8
0380
0380
0380
0380
0380
0380
0380
0000
0000
0000
0000
0000
ENDCHAR
STARTCHAR germandbls
ENCODING 158
SWIDTH 594 0
DWIDTH 16 0
BBX 16 32 0 -5
VVECTOR 8 27
SWIDTH1 0 -1188
DWIDTH1 0 -32
BITMAP 
0000
0000
0000
0000
0380
0FC0
1FF0
1FF0
3C78
3838
3838
3838
3838
3870
3CE0
3BC0
38E0
3870
3838
3838
3838
3838
3C78
3FF0
3BE0
39C0
3800
3800
3800
3000
2000
0000
ENDCHAR
STARTCHAR florin
ENCODING 159
SWIDTH 594 0
DWIDTH 16 0
BBX 16 32 0 -5
VVECTOR 8 27
SWIDTH1 0 -1188
DWIDTH1 0 -32
BITMAP 
0000
0000
0000
0000
007C
01FC
01FC
03C0
0380
0380
0380
0380
0380
0380
3FFC
3FFC
0380
0380
0380
0380
0380
0380
0380
0380
0380
0780
3F00
3F00
3C00
0000
0000
0000
ENDCHAR
STARTCHAR aacute
ENCODING 160
SWIDTH 594 0
DWIDTH 16 0
BBX 16 32 0 -5
VVECTOR 8 27
SWIDTH1 0 -1188
DWIDTH1 0 -32
BITMAP 
0000
0000
0000
0000
0070
00E0
01C0
0380
0700
0000
0000
0FE0
0FF8
0FF8
003C
001C
001C
07FC
1FFC
1FFC
3C1C
381C
381C
3C1C
1FFC
1FFC
07FC
0000
0000
0000
0000
0000
ENDCHAR
STARTCHAR iacute
ENCODING 161
SWIDTH 594 0
DWIDTH 16 0
BBX 16 32 0 -5
VVECTOR 8 27
SWIDTH1 0 -1188
DWIDTH1 0 -32
BITMAP 
0000
0000
0000
0000
0070
00E0
01C0
0380
0700
0000
0000
0F80
0F80
0380
0380
0380
0380
0380
0380
0380
0380
0380
0380
0380
0FE0
0FE0
0FE0
0000
0000
0000
0000
0000
ENDCHAR
STARTCHAR oacute
ENCODING 162
SWIDTH 594 0
DWIDTH 16 0
BBX 16 32 0 -5
VVECTOR 8 27
SWIDTH1 0 -1188
DWIDTH1 0 -32
BITMAP 
0000
0000
0000
0000
0070
00E0
01C0
0380
0700
0000
0000
07E0
1FF8
1FF8
3C3C
381C
381C
381C
381C
381C
381C
381C
381C
3C3C
1FF8
1FF8
07E0
0000
0000
0000
0000
0000
ENDCHAR
STARTCHAR uacute
ENCODING 163
SWIDTH 594 0
DWIDTH 16 0
BBX 16 32 0 -5
VVECTOR 8 27
SWIDTH1 0 -1188
DWIDTH1 0 -32
BITMAP 
0000
0000
0000
0000
0070
00E0
01C0
0380
0700
0000
0000
381C
381C
381C
381C
381C
381C
381C
381C
381C
381C
381C
381C
3C1C
1FFC
1FFC
07FC
0000
0000
0000
0000
0000
ENDCHAR
STARTCHAR ntilde
ENCODING 164
SWIDTH 594 0
DWIDTH 16 0
BBX 16 32 0 -5
VVECTOR 8 27
SWIDTH1 0 -1188
DWIDTH1 0 -32
BITMAP 
0000
0000
0F04
1F84
3FC4
31EC
20F8
2070
0000
0000
07E0
1FF8
1FF8
3C3C
381C
381C
381C
381C
381C
381C
381C
381C
381C
381C
381C
381C
381C
0000
0000
0000
0000
0000
ENDCHAR
STARTCHAR Ntilde
ENCODING 165
SWIDTH 594 0
DWIDTH 16 0
BBX 16 32 0 -5
VVECTOR 8 27
SWIDTH1 0 -1188
DWIDTH1 0 -32
BITMAP 
0000
0000
0F04
1F84
3FC4
33EC
21F8
20F0
0000
0000
381C
381C
3C1C
3C1C
3E1C
3E1C
3F1C
3B1C
3B9C
399C
39DC
38DC
38FC
387C
387C
383C
383C
0000
0000
0000
0000
0000
ENDCHAR
STARTCHAR ordfeminine
ENCODING 166
SWIDTH 594 0
DWIDTH 16 0
BBX 16 32 0 -5
VVECTOR 8 27
SWIDTH1 0 -1188
DWIDTH1 0 -32
BITMAP 
0000
0000
0000
0000
0000
0000
0000
0000
0000
0000
0000
0FE0
0FF8
0FF8
003C
001C
001C
07FC
1FFC
1FFC
3C1C
381C
381C
3C1C
1FFC
1FFC
07FC
0000
3FFC
3FFC
0000
0000
ENDCHAR
STARTCHAR ordmasculine
ENCODING 167
SWIDTH 594 0
DWIDTH 16 0
BBX 16 32 0 -5
VVECTOR 8 27
SWIDTH1 0 -1188
DWIDTH1 0 -32
BITMAP 
0000
0000
0000
0000
0000
0000
0000
0000
0000
0000
07E0
1FF8
1FF8
3C3C
381C
381C
381C
381C
381C
381C
381C
381C
381C
3C3C
1FF8
1FF8
07E0
0000
3FFC
3FFC
0000
0000
ENDCHAR
STARTCHAR questiondown
ENCODING 168
SWIDTH 594 0
DWIDTH 16 0
BBX 16 32 0 -5
VVECTOR 8 27
SWIDTH1 0 -1188
DWIDTH1 0 -32
BITMAP 
0000
0000
0000
0000
0000
0380
0380
0380
0000
0000
0380
0380
0380
0380
0380
0780
0F00
1E00
3C00
3800
3838
3838
3838
3C78
1FF0
1FF0
07C0
0000
0000
0000
0000
0000
ENDCHAR
STARTCHAR revlogicalnot
ENCODING 169
SWIDTH 594 0
DWIDTH 16 0
BBX 16 32 0 -5
VVECTOR 8 27
SWIDTH1 0 -1188
DWIDTH1 0 -32
BITMAP 
0000
0000
0000
0000
0000
0000
0000
0000
0000
0000
0000
0000
0000
0000
0000
0000
0000
0000
3FFC
3FFC
3FFC
3800
3800
3800
3800
3800
3800
3800
0000
0000
0000
0000
ENDCHAR
STARTCHAR logicalnot
ENCODING 170
SWIDTH 594 0
DWIDTH 16 0
BBX 16 32 0 -5
VVECTOR 8 27
SWIDTH1 0 -1188
DWIDTH1 0 -32
BITMAP 
0000
0000
0000
0000
0000
0000
0000
0000
0000
0000
0000
0000
0000
0000
0000
0000
0000
0000
3FFC
3FFC
3FFC
001C
001C
001C
001C
001C
001C
001C
0000
0000
0000
0000
ENDCHAR
STARTCHAR onehalf
ENCODING 171
SWIDTH 594 0
DWIDTH 16 0
BBX 16 32 0 -5
VVECTOR 8 27
SWIDTH1 0 -1188
DWIDTH1 0 -32
BITMAP 
0000
0000
0000
0000
1C00
1C00
0C00
0C00
0C06
0C0E
0C1C
0C38
0C70
0CE0
01C0
0380
0700
0E00
1CF0
39F8
739C
631C
0038
0070
00E0
01C0
03FC
03FC
0000
0000
0000
0000
ENDCHAR
STARTCHAR onequarter
ENCODING 172
SWIDTH 594 0
DWIDTH 16 0
BBX 16 32 0 -5
VVECTOR 8 27
SWIDTH1 0 -1188
DWIDTH1 0 -32
BITMAP 
0000
0000
0000
0000
1C00
1C00
0C00
0C00
0C06
0C0E
0C1C
0C38
0C70
0CE0
01C0
0380
0718
0E38
1C78
38F8
71D8
6398
0718
07FE
07FE
0018
0018
0018
0000
0000
0000
0000
ENDCHAR
STARTCHAR exclamdown
ENCODING 173
SWIDTH 594 0
DWIDTH 16 0
BBX 16 32 0 -5
VVECTOR 8 27
SWIDTH1 0 -1188
DWIDTH1 0 -32
BITMAP 
0000
0000
0000
0000
0380
0380
0380
0000
0000
0380
0380
0380
0380
0380
0380
0380
0380
0380
0380
0380
0380
0380
0380
0380
0380
0380
0000
0000
0000
0000
0000
0000
ENDCHAR
STARTCHAR guillemotleft
ENCODING 174
SWIDTH 594 0
DWIDTH 16 0
BBX 16 32 0 -5
VVECTOR 8 27
SWIDTH1 0 -1188
DWIDTH1 0 -32
BITMAP 
0000
0000
0000
0000
0000
0000
0000
0000
0000
0000
0000
0000
03CC
079C
0F3C
1E78
3CF0
79E0
F3C0
F3C0
79E0
3CF0
1E78
0F3C
079C
03CC
0000
0000
0000
0000
0000
0000
ENDCHAR
STARTCHAR guillemotright
ENCODING 175
SWIDTH 594 0
DWIDTH 16 0
BBX 16 32 0 -5
VVECTOR 8 27
SWIDTH1 0 -1188
DWIDTH1 0 -32
BITMAP 
0000
0000
0000
0000
0000
0000
0000
0000
0000
0000
0000
0000
CF00
E780
F3C0
79E0
3CF0
1E78
0F3C
0F3C
1E78
3CF0
79E0
F3C0
E780
CF00
0000
0000
0000
0000
0000
0000
ENDCHAR
STARTCHAR atilde
ENCODING 176
SWIDTH 594 0
DWIDTH 16 0
BBX 16 32 0 -5
VVECTOR 8 27
SWIDTH1 0 -1188
DWIDTH1 0 -32
BITMAP 
0000
0000
0F04
1F84
3FC4
31EC
20F8
2070
0000
0000
0FE0
0FF8
0FF8
003C
001C
001C
07FC
1FFC
1FFC
3C1C
381C
381C
381C
3C1C
1FFC
1FFC
07FC
0000
0000
0000
0000
0000
ENDCHAR
STARTCHAR otilde
ENCODING 177
SWIDTH 594 0
DWIDTH 16 0
BBX 16 32 0 -5
VVECTOR 8 27
SWIDTH1 0 -1188
DWIDTH1 0 -32
BITMAP 
0000
0000
0F04
1F84
3FC4
31EC
20F8
2070
0000
0000
07E0
1FF8
1FF8
3C3C
381C
381C
381C
381C
381C
381C
381C
381C
381C
381C
3C3C
1FF8
1FF8
07E0
0000
0000
0000
0000
ENDCHAR
STARTCHAR Oslash
ENCODING 178
SWIDTH 594 0
DWIDTH 16 0
BBX 16 32 0 -5
VVECTOR 8 27
SWIDTH1 0 -1188
DWIDTH1 0 -32
BITMAP 
0000
0000
0003
0003
07E6
1FFE
1FF8
3C3C
381C
381C
383C
383C
387C
387C
38DC
38DC
399C
399C
3B1C
3B1C
3E1C
3E1C
381C
381C
3C3C
1FF8
7FF8
67E0
C000
C000
0000
0000
ENDCHAR
STARTCHAR oslash
ENCODING 179
SWIDTH 594 0
DWIDTH 16 0
BBX 16 32 0 -5
VVECTOR 8 27
SWIDTH1 0 -1188
DWIDTH1 0 -32
BITMAP 
0000
0000
0000
0000
0000
0000
0000
0000
0000
0000
07E6
1FFE
1FF8
3C3C
387C
385C
38DC
38DC
399C
399C
3B1C
3B1C
3E1C
3C1C
3C3C
1FF8
7FF8
67E0
0000
0000
0000
0000
ENDCHAR
STARTCHAR oe
ENCODING 180
SWIDTH 594 0
DWIDTH 16 0
BBX 16 32 0 -5
VVECTOR 8 27
SWIDTH1 0 -1188
DWIDTH1 0 -32
BITMAP 
0000
0000
0000
0000
0000
0000
0000
0000
0000
0000
1C70
7EFC
7FFC
F7DE
E38E
E38E
E38E
E38E
E3FE
E3FE
E380
E380
E380
F780
7FFE
7FFE
1EFE
0000
0000
0000
0000
0000
ENDCHAR
STARTCHAR OE
ENCODING 181
SWIDTH 594 0
DWIDTH 16 0
BBX 16 32 0 -5
VVECTOR 8 27
SWIDTH1 0 -1188
DWIDTH1 0 -32
BITMAP 
0000
0000
0000
0000
1FFC
7FFC
7FFC
F3C0
E1C0
E1C0
E1C0
E1C0
E1FC
E1FC
E1FC
E1C0
E1C0
E1C0
E1C0
E1C0
E1C0
E1C0
E1C0
F3C0
7FFC
7FFC
0FFC
0000
0000
0000
0000
0000
ENDCHAR
STARTCHAR Agrave
ENCODING 182
SWIDTH 594 0
DWIDTH 16 0
BBX 16 32 0 -5
VVECTOR 8 27
SWIDTH1 0 -1188
DWIDTH1 0 -32
BITMAP 
0000
0E00
0700
0380
01C0
0380
07C0
07C0
0EE0
0EE0
1C70
1C70
3838
3838
701C
701C
7FFC
7FFC
7FFC
701C
701C
701C
701C
701C
701C
701C
701C
0000
0000
0000
0000
0000
ENDCHAR
STARTCHAR Atilde
ENCODING 183
SWIDTH 594 0
DWIDTH 16 0
BBX 16 32 0 -5
VVECTOR 8 27
SWIDTH1 0 -1188
DWIDTH1 0 -32
BITMAP 
0000
0F04
1F84
3FC4
31EC
23F8
27F0
07C0
0EE0
0EE0
1C70
1C70
3838
3838
701C
701C
7FFC
7FFC
7FFC
701C
701C
701C
701C
701C
701C
701C
701C
0000
0000
0000
0000
0000
ENDCHAR
STARTCHAR Otilde
ENCODING 184
SWIDTH 594 0
DWIDTH 16 0
BBX 16 32 0 -5
VVECTOR 8 27
SWIDTH1 0 -1188
DWIDTH1 0 -32
BITMAP 
0000
0F04
1F84
3FC4
31EC
20F8
2070
0000
07E0
1FF8
1FF8
3C3C
381C
381C
381C
381C
381C
381C
381C
381C
381C
381C
381C
3C3C
1FF8
1FF8
07E0
0000
0000
0000
0000
0000
ENDCHAR
STARTCHAR dieresis
ENCODING 185
SWIDTH 594 0
DWIDTH 16 0
BBX 16 32 0 -5
VVECTOR 8 27
SWIDTH1 0 -1188
DWIDTH1 0 -32
BITMAP 
0000
1C38
1C38
1C38
0000
0000
0000
0000
0000
0000
0000
0000
0000
0000
0000
0000
0000
0000
0000
0000
0000
0000
0000
0000
0000
0000
0000
0000
0000
0000
0000
0000
ENDCHAR
STARTCHAR acute
ENCODING 186
SWIDTH 594 0
DWIDTH 16 0
BBX 16 32 0 -5
VVECTOR 8 27
SWIDTH1 0 -1188
DWIDTH1 0 -32
BITMAP 
0000
0000
0000
00E0
01C0
0380
0700
0E00
0000
0000
0000
0000
0000
0000
0000
0000
0000
0000
0000
0000
0000
0000
0000
0000
0000
0000
0000
0000
0000
0000
0000
0000
ENDCHAR
STARTCHAR dagger
ENCODING 187
SWIDTH 594 0
DWIDTH 16 0
BBX 16 32 0 -5
VVECTOR 8 27
SWIDTH1 0 -1188
DWIDTH1 0 -32
BITMAP 
0000
0000
0300
0300
3FF0
3FF0
0300
0300
0300
0300
0300
0300
0300
0300
0300
0300
0000
0000
0000
0000
0000
0000
0000
0000
0000
0000
0000
0000
0000
0000
0000
0000
ENDCHAR
STARTCHAR paragraph
ENCODING 188
SWIDTH 594 0
DWIDTH 16 0
BBX 16 32 0 -5
VVECTOR 8 27
SWIDTH1 0 -1188
DWIDTH1 0 -32
BITMAP 
0000
0000
0000
0000
1FCC
7FCC
70CC
E0CC
E0CC
E0CC
E0CC
E0CC
E0CC
E0CC
E0CC
70CC
7FCC
1FCC
00CC
00CC
00CC
00CC
00CC
00CC
00CC
00CC
00CC
00CC
0000
0000
0000
0000
ENDCHAR
STARTCHAR copyright
ENCODING 189
SWIDTH 594 0
DWIDTH 16 0
BBX 16 32 0 -5
VVECTOR 8 27
SWIDTH1 0 -1188
DWIDTH1 0 -32
BITMAP 
0000
0000
0000
07C0
1FF0
3838
600C
67CC
CFC6
CC06
CC06
CC06
CFC6
67CC
600C
3838
1FF0
07C0
0000
0000
0000
0000
0000
0000
0000
0000
0000
0000
0000
0000
0000
0000
ENDCHAR
STARTCHAR registered
ENCODING 190
SWIDTH 594 0
DWIDTH 16 0
BBX 16 32 0 -5
VVECTOR 8 27
SWIDTH1 0 -1188
DWIDTH1 0 -32
BITMAP 
0000
0000
0000
07C0
1FF0
3838
600C
6FCC
CFE6
CC66
CFE6
CFC6
CC66
6C6C
600C
3838
1FF0
07C0
0000
0000
0000
0000
0000
0000
0000
0000
0000
0000
0000
0000
0000
0000
ENDCHAR
STARTCHAR trademark
ENCODING 191
SWIDTH 594 0
DWIDTH 16 0
BBX 16 32 0 -5
VVECTOR 8 27
SWIDTH1 0 -1188
DWIDTH1 0 -32
BITMAP 
0000
0000
0000
7EC6
7EEE
18FE
18FE
18D6
18C6
18C6
0000
0000
0000
0000
0000
0000
0000
0000
0000
0000
0000
0000
0000
0000
0000
0000
0000
0000
0000
0000
0000
0000
ENDCHAR
STARTCHAR ij
ENCODING 192
SWIDTH 594 0
DWIDTH 16 0
BBX 16 32 0 -5
VVECTOR 8 27
SWIDTH1 0 -1188
DWIDTH1 0 -32
BITMAP 
0000
0000
0000
0000
0000
0000
3838
3838
3838
0000
0000
7838
7838
7838
3838
3838
3838
3838
3838
3838
3838
3838
3838
3838
FE38
FE38
FE38
0038
0078
0FF0
0FF0
0FC0
ENDCHAR
STARTCHAR IJ
ENCODING 193
SWIDTH 594 0
DWIDTH 16 0
BBX 16 32 0 -5
VVECTOR 8 27
SWIDTH1 0 -1188
DWIDTH1 0 -32
BITMAP 
0000
0000
0000
0000
0000
FE38
FE38
FE38
3838
3838
3838
3838
3838
3838
3838
3838
3838
3838
3838
3838
3838
3838
3838
3838
FE38
FE38
FE38
0038
0078
0FF0
0FF0
0FC0
ENDCHAR
STARTCHAR uni05D0
ENCODING 194
SWIDTH 594 0
DWIDTH 16 0
BBX 16 32 0 -5
VVECTOR 8 27
SWIDTH1 0 -1188
DWIDTH1 0 -32
BITMAP 
0000
0000
0000
0000
0000
6070
C0E0
E0F0
F0F8
F87C
FC3E
7E1E
3F2E
1FC4
2FC0
47E0
C3F0
E1F8
70FC
787C
383C
781C
7018
E030
0000
0000
0000
0000
0000
0000
0000
0000
ENDCHAR
STARTCHAR uni05D1
ENCODING 195
SWIDTH 594 0
DWIDTH 16 0
BBX 16 32 0 -5
VVECTOR 8 27
SWIDTH1 0 -1188
DWIDTH1 0 -32
BITMAP 
0000
0000
0000
0000
4000
7FC0
7FF0
3FF0
1FF8
0038
0018
0018
0018
0018
0018
0018
0018
0018
0018
0018
1FFE
3FFC
7FF8
FFF0
0000
0000
0000
0000
0000
0000
0000
0000
ENDCHAR
STARTCHAR uni05D2
ENCODING 196
SWIDTH 594 0
DWIDTH 16 0
BBX 16 32 0 -5
VVECTOR 8 27
SWIDTH1 0 -1188
DWIDTH1 0 -32
BITMAP 
0000
0000
0000
0000
0200
03F0
03F8
03F8
01F8
001C
0008
0018
0018
0018
0018
0018
0018
0018
0018
0018
1FF8
3F98
7F18
FE30
0000
0000
0000
0000
0000
0000
0000
0000
ENDCHAR
STARTCHAR uni05D3
ENCODING 197
SWIDTH 594 0
DWIDTH 16 0
BBX 16 32 0 -5
VVECTOR 8 27
SWIDTH1 0 -1188
DWIDTH1 0 -32
BITMAP 
0000
0000
0000
0000
4000
FFFC
FFFE
7FFE
1FFC
0030
0030
0030
0030
0030
0030
0030
0030
0030
0030
0030
0030
0030
0030
0060
0000
0000
0000
0000
0000
0000
0000
0000
ENDCHAR
STARTCHAR uni05D4
ENCODING 198
SWIDTH 594 0
DWIDTH 16 0
BBX 16 32 0 -5
VVECTOR 8 27
SWIDTH1 0 -1188
DWIDTH1 0 -32
BITMAP 
0000
0000
0000
0000
4000
FFFC
FFFE
7FFE
1FFC
0030
0030
0030
0030
1830
3030
3030
3030
3030
3030
3030
3030
3030
3030
6060
0000
0000
0000
0000
0000
0000
0000
0000
ENDCHAR
STARTCHAR uni05D5
ENCODING 199
SWIDTH 594 0
DWIDTH 16 0
BBX 16 32 0 -5
VVECTOR 8 27
SWIDTH1 0 -1188
DWIDTH1 0 -32
BITMAP 
0000
0000
0000
0000
1000
1F80
1FC0
1FC0
0FC0
00C0
0040
00C0
00C0
00C0
00C0
00C0
00C0
00C0
00C0
00C0
00C0
00C0
00C0
0180
0000
0000
0000
0000
0000
0000
0000
0000
ENDCHAR
STARTCHAR uni05D6
ENCODING 200
SWIDTH 594 0
DWIDTH 16 0
BBX 16 32 0 -5
VVECTOR 8 27
SWIDTH1 0 -1188
DWIDTH1 0 -32
BITMAP 
0000
0000
0000
0000
1000
1FC0
1FE0
1FF0
0FF0
0050
00C0
00C0
00C0
00C0
00C0
00C0
00C0
00C0
00C0
00C0
00C0
00C0
00C0
0180
0000
0000
0000
0000
0000
0000
0000
0000
ENDCHAR
STARTCHAR uni05D7
ENCODING 201
SWIDTH 594 0
DWIDTH 16 0
BBX 16 32 0 -5
VVECTOR 8 27
SWIDTH1 0 -1188
DWIDTH1 0 -32
BITMAP 
0000
0000
0000
0000
4000
FFFC
FFFE
7FFE
1FFC
0830
1030
3030
3030
3030
3030
3030
3030
3030
3030
3030
3030
3030
3030
6060
0000
0000
0000
0000
0000
0000
0000
0000
ENDCHAR
STARTCHAR uni05D8
ENCODING 202
SWIDTH 594 0
DWIDTH 16 0
BBX 16 32 0 -5
VVECTOR 8 27
SWIDTH1 0 -1188
DWIDTH1 0 -32
BITMAP 
0000
0000
0000
0000
4000
7030
7878
3C78
5CDC
C48C
C10C
C00C
C00C
C00C
C00C
C00C
C00C
C00C
C00C
E01C
FFFC
FFF8
FFF0
7FE0
0000
0000
0000
0000
0000
0000
0000
0000
ENDCHAR
STARTCHAR uni05D9
ENCODING 203
SWIDTH 594 0
DWIDTH 16 0
BBX 16 32 0 -5
VVECTOR 8 27
SWIDTH1 0 -1188
DWIDTH1 0 -32
BITMAP 
0000
0000
0000
0000
0200
0700
07C0
07E0
03F0
00F0
0030
0010
0010
0000
0000
0000
0000
0000
0000
0000
0000
0000
0000
0000
0000
0000
0000
0000
0000
0000
0000
0000
ENDCHAR
STARTCHAR uni05DB
ENCODING 204
SWIDTH 594 0
DWIDTH 16 0
BBX 16 32 0 -5
VVECTOR 8 27
SWIDTH1 0 -1188
DWIDTH1 0 -32
BITMAP 
0000
0000
0000
0000
4000
7FC0
7FF0
3FF0
1FF8
0038
0018
0018
0018
0018
0018
0018
0018
0018
0018
0018
1FF8
3FF8
7FF0
FFC0
0000
0000
0000
0000
0000
0000
0000
0000
ENDCHAR
STARTCHAR uni05DC
ENCODING 205
SWIDTH 594 0
DWIDTH 16 0
BBX 16 32 0 -5
VVECTOR 8 27
SWIDTH1 0 -1188
DWIDTH1 0 -32
BITMAP 
0000
4000
E000
6000
2000
7FFC
7FFE
3FFE
1FFC
000C
000C
000C
000C
000C
000C
0018
0030
0060
00C0
00C0
0180
0380
0380
0380
0000
0000
0000
0000
0000
0000
0000
0000
ENDCHAR
STARTCHAR uni05DE
ENCODING 206
SWIDTH 594 0
DWIDTH 16 0
BBX 16 32 0 -5
VVECTOR 8 27
SWIDTH1 0 -1188
DWIDTH1 0 -32
BITMAP 
0000
0000
0000
0000
3080
78E0
79F0
3BF8
1FF8
3838
3018
6018
6018
C018
C018
C018
C018
C018
C018
C018
C3F8
C7F8
CFF0
9FE0
0000
0000
0000
0000
0000
0000
0000
0000
ENDCHAR
STARTCHAR uni05E0
ENCODING 207
SWIDTH 594 0
DWIDTH 16 0
BBX 16 32 0 -5
VVECTOR 8 27
SWIDTH1 0 -1188
DWIDTH1 0 -32
BITMAP 
0000
0000
0000
0000
1000
1F80
1FC0
1FC0
0FC0
00E0
0040
00C0
00C0
00C0
00C0
00C0
00C0
00C0
00C0
00C0
0FC0
1FC0
3F80
7F00
0000
0000
0000
0000
0000
0000
0000
0000
ENDCHAR
STARTCHAR uni05E1
ENCODING 208
SWIDTH 594 0
DWIDTH 16 0
BBX 16 32 0 -5
VVECTOR 8 27
SWIDTH1 0 -1188
DWIDTH1 0 -32
BITMAP 
0000
0000
0000
0000
2000
7FE0
7FF8
3FF8
3FFC
303C
601C
C00C
C00C
C00C
C00C
C00C
C00C
C00C
C01C
C038
FFF8
FFF0
FFE0
FFC0
0000
0000
0000
0000
0000
0000
0000
0000
ENDCHAR
STARTCHAR uni05E2
ENCODING 209
SWIDTH 594 0
DWIDTH 16 0
BBX 16 32 0 -5
VVECTOR 8 27
SWIDTH1 0 -1188
DWIDTH1 0 -32
BITMAP 
0000
0000
0000
0000
8080
F8F8
FCFC
FCFC
7C7C
060C
0C18
0C18
0C18
0C18
0C18
0630
0360
01C0
0180
0380
0700
0E00
1C00
1C00
0000
0000
0000
0000
0000
0000
0000
0000
ENDCHAR
STARTCHAR uni05E4
ENCODING 210
SWIDTH 594 0
DWIDTH 16 0
BBX 16 32 0 -5
VVECTOR 8 27
SWIDTH1 0 -1188
DWIDTH1 0 -32
BITMAP 
0000
0000
0000
0000
4000
7FC0
7FF0
3FF0
1FF8
1838
3018
6018
7F18
7E18
FC18
8018
0018
0018
0018
0018
1FF8
3FF8
7FF0
FFC0
0000
0000
0000
0000
0000
0000
0000
0000
ENDCHAR
STARTCHAR uni05E6
ENCODING 211
SWIDTH 594 0
DWIDTH 16 0
BBX 16 32 0 -5
VVECTOR 8 27
SWIDTH1 0 -1188
DWIDTH1 0 -32
BITMAP 
0000
0000
0000
0000
8080
F8F8
FCFC
FCFC
7C7C
060C
0C18
0C18
0C18
0C18
0C18
0630
0360
01C0
00C0
0060
1FF0
3FF8
7FF8
FFF0
0000
0000
0000
0000
0000
0000
0000
0000
ENDCHAR
STARTCHAR uni05E7
ENCODING 212
SWIDTH 594 0
DWIDTH 16 0
BBX 16 32 0 -5
VVECTOR 8 27
SWIDTH1 0 -1188
DWIDTH1 0 -32
BITMAP 
0000
0000
0000
0000
2000
7FF0
7FF8
3FFC
1FFC
000C
180C
300C
300C
300C
300C
3018
3030
3060
30C0
3180
3300
3000
3000
3000
3000
3000
2000
0000
0000
0000
0000
0000
ENDCHAR
STARTCHAR uni05E8
ENCODING 213
SWIDTH 594 0
DWIDTH 16 0
BBX 16 32 0 -5
VVECTOR 8 27
SWIDTH1 0 -1188
DWIDTH1 0 -32
BITMAP 
0000
0000
0000
0000
4000
FFFC
FFFE
7FFE
1FFC
000C
000C
000C
000C
000C
000C
000C
000C
000C
000C
000C
000C
000C
000C
0008
0000
0000
0000
0000
0000
0000
0000
0000
ENDCHAR
STARTCHAR uni05E9
ENCODING 214
SWIDTH 594 0
DWIDTH 16 0
BBX 16 32 0 -5
VVECTOR 8 27
SWIDTH1 0 -1188
DWIDTH1 0 -32
BITMAP 
0000
0000
0000
0000
8410
E71C
F79E
F79E
738E
1082
6186
C186
C186
C30C
C30C
C60C
C618
C618
C618
C618
FFF8
FFF8
FFF0
FFE0
0000
0000
0000
0000
0000
0000
0000
0000
ENDCHAR
STARTCHAR uni05EA
ENCODING 215
SWIDTH 594 0
DWIDTH 16 0
BBX 16 32 0 -5
VVECTOR 8 27
SWIDTH1 0 -1188
DWIDTH1 0 -32
BITMAP 
0000
0000
0000
0000
4000
FFFC
FFFE
7FFE
1FFC
1030
3030
6030
6030
6030
6030
6030
7030
3030
3830
3830
3830
3830
3030
6060
0000
0000
0000
0000
0000
0000
0000
0000
ENDCHAR
STARTCHAR uni05DF
ENCODING 216
SWIDTH 594 0
DWIDTH 16 0
BBX 16 32 0 -5
VVECTOR 8 27
SWIDTH1 0 -1188
DWIDTH1 0 -32
BITMAP 
0000
0000
0000
0000
1000
1F80
1FC0
1FC0
0FC0
00C0
0040
00C0
00C0
00C0
00C0
00C0
00C0
00C0
00C0
00C0
00C0
00C0
00C0
00C0
00C0
00C0
00C0
0180
0000
0000
0000
0000
ENDCHAR
STARTCHAR uni05DA
ENCODING 217
SWIDTH 594 0
DWIDTH 16 0
BBX 16 32 0 -5
VVECTOR 8 27
SWIDTH1 0 -1188
DWIDTH1 0 -32
BITMAP 
0000
0000
0000
0000
4000
FFFC
FFFE
7FFE
1FFC
0030
0030
0030
0030
0030
0030
0030
0030
0030
0030
0030
0030
0030
0030
0030
0030
0030
0030
0060
0000
0000
0000
0000
ENDCHAR
STARTCHAR uni05DD
ENCODING 218
SWIDTH 594 0
DWIDTH 16 0
BBX 16 32 0 -5
VVECTOR 8 27
SWIDTH1 0 -1188
DWIDTH1 0 -32
BITMAP 
0000
0000
0000
0000
2000
7FE0
7FF8
3FF8
3FFC
303C
601C
C00C
C00C
C00C
C00C
C00C
C00C
C00C
C00C
C00C
FFFC
FFFC
FFFC
FFFC
0000
0000
0000
0000
0000
0000
0000
0000
ENDCHAR
STARTCHAR uni05E3
ENCODING 219
SWIDTH 594 0
DWIDTH 16 0
BBX 16 32 0 -5
VVECTOR 8 27
SWIDTH1 0 -1188
DWIDTH1 0 -32
BITMAP 
0000
0000
0000
0000
4000
7FC0
7FF0
3FF0
1FF8
1838
3018
6018
7F18
7E18
FC18
8018
0018
0018
0018
0018
0018
0018
0018
0018
0018
0018
0018
0030
0000
0000
0000
0000
ENDCHAR
STARTCHAR uni05E5
ENCODING 220
SWIDTH 594 0
DWIDTH 16 0
BBX 16 32 0 -5
VVECTOR 8 27
SWIDTH1 0 -1188
DWIDTH1 0 -32
BITMAP 
0000
0000
0000
0000
8080
F8F8
FCFC
FCFC
7C7C
060C
0C18
0C18
0C18
0C18
0C18
0C30
0C60
0CC0
0D80
0F00
0C00
0C00
0C00
0C00
0C00
0C00
0C00
1800
0000
0000
0000
0000
ENDCHAR
STARTCHAR section
ENCODING 221
SWIDTH 594 0
DWIDTH 16 0
BBX 16 32 0 -5
VVECTOR 8 27
SWIDTH1 0 -1188
DWIDTH1 0 -32
BITMAP 
0000
0000
0000
0000
01E0
07F0
0738
0E1C
0E0C
0F04
0780
03C0
0FF0
1FF8
3C3C
381C
381C
3C3C
1FF8
0FF0
03C0
01E0
20F0
3070
3870
1CE0
0FE0
0780
0000
0000
0000
0000
ENDCHAR
STARTCHAR logicaland
ENCODING 222
SWIDTH 594 0
DWIDTH 16 0
BBX 16 32 0 -5
VVECTOR 8 27
SWIDTH1 0 -1188
DWIDTH1 0 -32
BITMAP 
0000
0000
0000
0000
0000
0000
0000
0000
0000
0000
0000
0000
0300
0300
0780
0780
0FC0
0FC0
1CE0
1CE0
3870
3870
7038
7038
E01C
E01C
0000
0000
0000
0000
0000
0000
ENDCHAR
STARTCHAR infinity
ENCODING 223
SWIDTH 594 0
DWIDTH 16 0
BBX 16 32 0 -5
VVECTOR 8 27
SWIDTH1 0 -1188
DWIDTH1 0 -32
BITMAP 
0000
0000
0000
0000
0000
0000
0000
0000
1818
7C3E
7E7E
F777
E7A3
C3C3
C1C3
E1E3
F6F7
7E7E
7C3E
1818
0000
0000
0000
0000
0000
0000
0000
0000
0000
0000
0000
0000
ENDCHAR
STARTCHAR alpha
ENCODING 224
SWIDTH 594 0
DWIDTH 16 0
BBX 16 32 0 -5
VVECTOR 8 27
SWIDTH1 0 -1188
DWIDTH1 0 -32
BITMAP 
0000
0000
0000
0000
0000
0000
0000
0000
0000
0E0E
3F0E
3F9C
71DC
60F8
6078
6070
6060
60E0
60D0
71F8
3F9C
3F8C
0E06
0000
0000
0000
0000
0000
0000
0000
0000
0000
ENDCHAR
STARTCHAR beta
ENCODING 225
SWIDTH 594 0
DWIDTH 16 0
BBX 16 32 0 -5
VVECTOR 8 27
SWIDTH1 0 -1188
DWIDTH1 0 -32
BITMAP 
0000
0000
0000
0000
0380
0FC0
1FF0
1FF0
3C78
3838
3838
3838
3838
3870
3CE0
3BC0
38E0
3870
3838
3838
3838
3838
3C78
3FF0
3BE0
39C0
3800
3800
3800
3000
2000
0000
ENDCHAR
STARTCHAR Gamma
ENCODING 226
SWIDTH 594 0
DWIDTH 16 0
BBX 16 32 0 -5
VVECTOR 8 27
SWIDTH1 0 -1188
DWIDTH1 0 -32
BITMAP 
0000
0000
0000
0000
FFFC
7FFC
3FFC
380C
3804
3800
3800
3800
3800
3800
3800
3800
3800
3800
3800
3800
3800
3800
3800
3800
3800
3800
7C00
FE00
0000
0000
0000
0000
ENDCHAR
STARTCHAR pi
ENCODING 227
SWIDTH 594 0
DWIDTH 16 0
BBX 16 32 0 -5
VVECTOR 8 27
SWIDTH1 0 -1188
DWIDTH1 0 -32
BITMAP 
0000
0000
0000
0000
0000
0000
0000
0000
0004
000C
3FFC
7FFC
FFF8
CCC0
8CC0
0CC0
0CC0
0CC0
0CC0
0CC0
0CC0
0CC0
0CC0
0CC0
0000
0000
0000
0000
0000
0000
0000
0000
ENDCHAR
STARTCHAR Sigma
ENCODING 228
SWIDTH 594 0
DWIDTH 16 0
BBX 16 32 0 -5
VVECTOR 8 27
SWIDTH1 0 -1188
DWIDTH1 0 -32
BITMAP 
0000
0000
0000
0000
FFFC
FFFC
FFFC
F004
7800
3C00
1E00
0F00
0780
03C0
01E0
00F0
00F0
01E0
03C0
0780
0F00
1E00
3C00
7800
F004
FFFC
FFFC
FFFC
0000
0000
0000
0000
ENDCHAR
STARTCHAR sigma
ENCODING 229
SWIDTH 594 0
DWIDTH 16 0
BBX 16 32 0 -5
VVECTOR 8 27
SWIDTH1 0 -1188
DWIDTH1 0 -32
BITMAP 
0000
0000
0000
0000
0000
0000
0000
0000
01FC
03FC
0780
1FE0
3CF0
7878
7038
F03C
F03C
F03C
F03C
F03C
F03C
7038
7878
3CF0
1FE0
0780
0000
0000
0000
0000
0000
0000
ENDCHAR
STARTCHAR mu
ENCODING 230
SWIDTH 594 0
DWIDTH 16 0
BBX 16 32 0 -5
VVECTOR 8 27
SWIDTH1 0 -1188
DWIDTH1 0 -32
BITMAP 
0000
0000
0000
0000
0000
0000
0000
0000
0000
0000
1C1C
1C1C
1C1C
1C1C
1C1C
1C1C
1C1C
1C1C
1C1C
1C1C
1C1C
1E3C
1FFE
1FFF
1BF7
31E3
F000
E000
C000
0000
0000
0000
ENDCHAR
STARTCHAR tau
ENCODING 231
SWIDTH 594 0
DWIDTH 16 0
BBX 16 32 0 -5
VVECTOR 8 27
SWIDTH1 0 -1188
DWIDTH1 0 -32
BITMAP 
0000
0000
0000
0000
0000
0000
0018
0018
3FF8
7FF8
FFF0
C300
8700
8700
0700
0700
0700
0700
0700
0700
0700
0600
0400
0000
0000
0000
0000
0000
0000
0000
0000
0000
ENDCHAR
STARTCHAR Phi
ENCODING 232
SWIDTH 594 0
DWIDTH 16 0
BBX 16 32 0 -5
VVECTOR 8 27
SWIDTH1 0 -1188
DWIDTH1 0 -32
BITMAP 
0000
0000
3FF0
3FF0
0300
0300
0300
0300
1FE0
7FF8
7038
F03C
E01C
E01C
E01C
E01C
E01C
E01C
E01C
E01C
F03C
7038
7FF8
1FE0
0300
0300
0300
0300
3FF0
3FF0
0000
0000
ENDCHAR
STARTCHAR Theta
ENCODING 233
SWIDTH 594 0
DWIDTH 16 0
BBX 16 32 0 -5
VVECTOR 8 27
SWIDTH1 0 -1188
DWIDTH1 0 -32
BITMAP 
0000
0000
0000
0000
0000
07E0
1FF8
1FF8
3C3C
381C
300C
300C
300C
300C
3FFC
3FFC
300C
300C
300C
300C
381C
3C3C
1FF8
1FF8
07E0
0000
0000
0000
0000
0000
0000
0000
ENDCHAR
STARTCHAR uni03A9
ENCODING 234
SWIDTH 594 0
DWIDTH 16 0
BBX 16 32 0 -5
VVECTOR 8 27
SWIDTH1 0 -1188
DWIDTH1 0 -32
BITMAP 
0000
0000
0000
0000
0780
1FE0
7CF8
7878
F03C
E01C
E01C
E01C
E01C
E01C
F03C
7038
7878
3870
1CE0
0CC0
C48C
C48C
ECDC
7CF8
3870
0000
0000
0000
0000
0000
0000
0000
ENDCHAR
STARTCHAR delta
ENCODING 235
SWIDTH 594 0
DWIDTH 16 0
BBX 16 32 0 -5
VVECTOR 8 27
SWIDTH1 0 -1188
DWIDTH1 0 -32
BITMAP 
0000
0000
03FC
07FC
0FFC
0E00
0C00
0C00
0E00
0700
03C0
03C0
07E0
1E78
1C38
381C
300C
300C
300C
300C
381C
3C3C
3FFC
1FF8
0FF0
03C0
0000
0000
0000
0000
0000
0000
ENDCHAR
STARTCHAR uni222E
ENCODING 236
SWIDTH 594 0
DWIDTH 16 0
BBX 16 32 0 -5
VVECTOR 8 27
SWIDTH1 0 -1188
DWIDTH1 0 -32
BITMAP 
0000
0000
00FC
01FC
03FC
0380
0300
0300
1FE0
7FF8
7338
F33C
E31C
E31C
E31C
E31C
E31C
E31C
E31C
E31C
F33C
7338
7FF8
1FE0
0300
0300
0700
FE00
FC00
F800
0000
0000
ENDCHAR
STARTCHAR phi1
ENCODING 237
SWIDTH 594 0
DWIDTH 16 0
BBX 16 32 0 -5
VVECTOR 8 27
SWIDTH1 0 -1188
DWIDTH1 0 -32
BITMAP 
0000
0000
0000
0000
0300
0300
0300
0300
1FE0
7FF8
7338
F33C
E31C
E31C
E31C
E31C
E31C
E31C
E31C
E31C
F33C
7338
7FF8
1FE0
0300
0300
0300
0300
0000
0000
0000
0000
ENDCHAR
STARTCHAR element
ENCODING 238
SWIDTH 594 0
DWIDTH 16 0
BBX 16 32 0 -5
VVECTOR 8 27
SWIDTH1 0 -1188
DWIDTH1 0 -32
BITMAP 
0000
0000
0000
0000
07FC
1FFC
3FFC
7C00
7800
F000
E000
E000
E000
E000
FFF0
FFF0
FFF0
E000
E000
E000
E000
E000
F000
7800
7FFC
3FFC
0FFC
0000
0000
0000
0000
0000
ENDCHAR
STARTCHAR intersection
ENCODING 239
SWIDTH 594 0
DWIDTH 16 0
BBX 16 32 0 -5
VVECTOR 8 27
SWIDTH1 0 -1188
DWIDTH1 0 -32
BITMAP 
0000
0000
0000
0000
1FE0
7FF8
7FF8
F03C
E01C
E01C
E01C
E01C
E01C
E01C
E01C
E01C
E01C
E01C
E01C
E01C
E01C
E01C
E01C
E01C
E01C
E01C
E01C
0000
0000
0000
0000
0000
ENDCHAR
STARTCHAR equivalence
ENCODING 240
SWIDTH 594 0
DWIDTH 16 0
BBX 16 32 0 -5
VVECTOR 8 27
SWIDTH1 0 -1188
DWIDTH1 0 -32
BITMAP 
0000
0000
0000
0000
0000
0000
0000
0000
3FFC
3FFC
3FFC
0000
0000
0000
3FFC
3FFC
3FFC
0000
0000
0000
3FFC
3FFC
3FFC
0000
0000
0000
0000
0000
0000
0000
0000
0000
ENDCHAR
STARTCHAR plusminus
ENCODING 241
SWIDTH 594 0
DWIDTH 16 0
BBX 16 32 0 -5
VVECTOR 8 27
SWIDTH1 0 -1188
DWIDTH1 0 -32
BITMAP 
0000
0000
0000
0000
0000
0000
0000
0000
0000
0380
0380
0380
0380
0380
3FF8
3FF8
3FF8
0380
0380
0380
0380
0380
0000
0000
3FF8
3FF8
3FF8
0000
0000
0000
0000
0000
ENDCHAR
STARTCHAR greaterequal
ENCODING 242
SWIDTH 594 0
DWIDTH 16 0
BBX 16 32 0 -5
VVECTOR 8 27
SWIDTH1 0 -1188
DWIDTH1 0 -32
BITMAP 
0000
0000
0000
0000
3800
3C00
3E00
1F00
0F80
07C0
03E0
01F0
00F8
00F8
01F0
03E0
07C0
0F80
1F00
3E00
3C00
3800
0000
0000
3FF8
3FF8
3FF8
0000
0000
0000
0000
0000
ENDCHAR
STARTCHAR lessequal
ENCODING 243
SWIDTH 594 0
DWIDTH 16 0
BBX 16 32 0 -5
VVECTOR 8 27
SWIDTH1 0 -1188
DWIDTH1 0 -32
BITMAP 
0000
0000
0000
0000
0038
0078
00F8
01F0
03E0
07C0
0F80
1F00
3E00
3E00
1F00
0F80
07C0
03E0
01F0
00F8
0078
0038
0000
0000
3FF8
3FF8
3FF8
0000
0000
0000
0000
0000
ENDCHAR
STARTCHAR integraltp
ENCODING 244
SWIDTH 594 0
DWIDTH 16 0
BBX 16 32 0 -5
VVECTOR 8 27
SWIDTH1 0 -1188
DWIDTH1 0 -32
BITMAP 
0000
0000
0000
0000
0038
00FE
00FE
01EF
01C3
01C7
01CF
01CF
01C6
01C0
01C0
01C0
01C0
01C0
01C0
01C0
01C0
01C0
01C0
01C0
01C0
01C0
01C0
01C0
01C0
01C0
01C0
01C0
ENDCHAR
STARTCHAR integralbt
ENCODING 245
SWIDTH 594 0
DWIDTH 16 0
BBX 16 32 0 -5
VVECTOR 8 27
SWIDTH1 0 -1188
DWIDTH1 0 -32
BITMAP 
01C0
01C0
01C0
01C0
01C0
01C0
01C0
01C0
01C0
01C0
01C0
01C0
01C0
01C0
01C0
01C0
01C0
01C0
01C0
31C0
79C0
79C0
71C0
61C0
7BC0
3F80
3F80
0E00
0000
0000
0000
0000
ENDCHAR
STARTCHAR divide
ENCODING 246
SWIDTH 594 0
DWIDTH 16 0
BBX 16 32 0 -5
VVECTOR 8 27
SWIDTH1 0 -1188
DWIDTH1 0 -32
BITMAP 
0000
0000
0000
0000
0000
0000
0000
0000
03C0
03C0
03C0
03C0
0000
0000
3FFC
3FFC
3FFC
0000
0000
03C0
03C0
03C0
03C0
0000
0000
0000
0000
0000
0000
0000
0000
0000
ENDCHAR
STARTCHAR approxequal
ENCODING 247
SWIDTH 594 0
DWIDTH 16 0
BBX 16 32 0 -5
VVECTOR 8 27
SWIDTH1 0 -1188
DWIDTH1 0 -32
BITMAP 
0000
0000
0000
0000
0000
0000
0000
0004
000C
0FFC
1FF8
3FF0
3000
2000
0004
000C
0FFC
1FF8
3FF0
3000
2000
0000
0000
0000
0000
0000
0000
0000
0000
0000
0000
0000
ENDCHAR
STARTCHAR degree
ENCODING 248
SWIDTH 594 0
DWIDTH 16 0
BBX 16 32 0 -5
VVECTOR 8 27
SWIDTH1 0 -1188
DWIDTH1 0 -32
BITMAP 
0000
0000
0000
0780
1FE0
1CE0
3870
3030
3030
3870
1CE0
1FE0
0780
0000
0000
0000
0000
0000
0000
0000
0000
0000
0000
0000
0000
0000
0000
0000
0000
0000
0000
0000
ENDCHAR
STARTCHAR uni2219
ENCODING 249
SWIDTH 594 0
DWIDTH 16 0
BBX 16 32 0 -5
VVECTOR 8 27
SWIDTH1 0 -1188
DWIDTH1 0 -32
BITMAP 
0000
0000
0000
0780
1FE0
1FE0
3FF0
3FF0
3FF0
3FF0
1FE0
1FE0
0780
0000
0000
0000
0000
0000
0000
0000
0000
0000
0000
0000
0000
0000
0000
0000
0000
0000
0000
0000
ENDCHAR
STARTCHAR periodcentered
ENCODING 250
SWIDTH 594 0
DWIDTH 16 0
BBX 16 32 0 -5
VVECTOR 8 27
SWIDTH1 0 -1188
DWIDTH1 0 -32
BITMAP 
0000
0000
0000
0000
0000
0000
0000
0000
0000
0000
0000
0000
0000
0000
0000
0000
0000
0000
03C0
07E0
0FF0
0FF0
0FF0
0FF0
07E0
03C0
0000
0000
0000
0000
0000
0000
ENDCHAR
STARTCHAR radical
ENCODING 251
SWIDTH 594 0
DWIDTH 16 0
BBX 16 32 0 -5
VVECTOR 8 27
SWIDTH1 0 -1188
DWIDTH1 0 -32
BITMAP 
0000
0000
0000
0000
0000
0000
0000
0000
0000
0000
00FF
00FF
00C0
C180
C180
C180
6300
6300
6300
3600
3600
3600
1C00
1C00
0000
0000
0000
0000
0000
0000
0000
0000
ENDCHAR
STARTCHAR uni207F
ENCODING 252
SWIDTH 594 0
DWIDTH 16 0
BBX 16 32 0 -5
VVECTOR 8 27
SWIDTH1 0 -1188
DWIDTH1 0 -32
BITMAP 
0000
0000
0000
0000
0600
1F80
1F80
39C0
30C0
30C0
30C0
30C0
30C0
30C0
30C0
0000
0000
0000
0000
0000
0000
0000
0000
0000
0000
0000
0000
0000
0000
0000
0000
0000
ENDCHAR
STARTCHAR uni00B2
ENCODING 253
SWIDTH 594 0
DWIDTH 16 0
BBX 16 32 0 -5
VVECTOR 8 27
SWIDTH1 0 -1188
DWIDTH1 0 -32
BITMAP 
0000
0000
0000
0000
0F00
1F80
39C0
30C0
01C0
0380
0700
0E00
1C00
3800
3FC0
3FC0
0000
0000
0000
0000
0000
0000
0000
0000
0000
0000
0000
0000
0000
0000
0000
0000
ENDCHAR
STARTCHAR uni00B3
ENCODING 254
SWIDTH 594 0
DWIDTH 16 0
BBX 16 32 0 -5
VVECTOR 8 27
SWIDTH1 0 -1188
DWIDTH1 0 -32
BITMAP 
0000
0000
0000
0000
3FC0
3FC0
01C0
0380
0700
0380
01C0
00C0
30C0
39C0
1F80
0F00
0000
0000
0000
0000
0000
0000
0000
0000
0000
0000
0000
0000
0000
0000
0000
0000
ENDCHAR
STARTCHAR macron
ENCODING 255
SWIDTH 594 0
DWIDTH 16 0
BBX 16 32 0 -5
VVECTOR 8 27
SWIDTH1 0 -1188
DWIDTH1 0 -32
BITMAP 
0000
FFFC
FFFC
FFFC
0000
0000
0000
0000
0000
0000
0000
0000
0000
0000
0000
0000
0000
0000
0000
0000
0000
0000
0000
0000
0000
0000
0000
0000
0000
0000
0000
0000
ENDCHAR
ENDFONT
